<mxfile host="Electron" agent="Mozilla/5.0 (Windows NT 10.0; Win64; x64) AppleWebKit/537.36 (KHTML, like Gecko) draw.io/24.7.17 Chrome/128.0.6613.36 Electron/32.0.1 Safari/537.36" version="24.7.17">
  <diagram id="C5RBs43oDa-KdzZeNtuy" name="Page-1">
    <mxGraphModel dx="2849" dy="1906" grid="0" gridSize="10" guides="1" tooltips="1" connect="1" arrows="1" fold="1" page="1" pageScale="1" pageWidth="827" pageHeight="1169" math="0" shadow="0">
      <root>
        <mxCell id="WIyWlLk6GJQsqaUBKTNV-0" />
        <mxCell id="WIyWlLk6GJQsqaUBKTNV-1" parent="WIyWlLk6GJQsqaUBKTNV-0" />
        <mxCell id="Karo0WKER9Bs8j3VZDQL-0" value="" style="shape=image;verticalLabelPosition=bottom;labelBackgroundColor=default;verticalAlign=top;aspect=fixed;imageAspect=0;image=data:image/png,iVBORw0KGgoAAAANSUhEUgAAAvsAAAIRCAYAAADUXnKqAAAAAXNSR0IArs4c6QAAAARnQU1BAACxjwv8YQUAAAAJcEhZcwAADsMAAA7DAcdvqGQAAMevSURBVHhe7b15lBRlnu9d1+O5s5w799Azd973emfuaJ8+91z/cHS01wFaQMT2eJSj09rt1jayb+pQr9etlYtQDJtQyiJFI8VeUNTGUiVIQbGK7CJLoVIgVcUOxSpLsfh74/fEkk9EPBGZWZmRW3y/53wgM9bMrF9EfuLJJyLyCEEQBEEQBEGQnAxkH0EQBEEQBEFyNJB9BEEQBEEQBMnRQPYRBEEQBEEQJEcD2UcQBEEQBEGQHA1kH0EQBEEQBEFyNJB9BEEQBEEQBMnRQPYRBEEQBEEQJEcD2UcQBEEQBEGQHA1kH0EQBEEQJENz/Phx2rVrFwgh+/btM6ogsUD2EQRBEARBMiiNjY00ZswY6t69Oz3//PM0ZMgQEEIGDRpEDz30EOXn51NdXZ1RHfEHso8gCIIgCJIhKSkpoT59+tCqlcvo5JF9dPbYl3Ty4GqDOo01OoeYtYJT363TWK9zeD2dFmzQ2Cg4c/hzOtNosonONDFfaGymM806Lc1bDLZqbKOWI9vorGA7nT3K7KBzR3fSuWMmXxrs0viKzh3XOX98N50/wezR2EvnT+6lC4J9BvV08eR+unjK5Gu6ePobg2/p4hmdS2cOaDQYHKRLLRG+P3tI4zudc4ctLp9r1DnfpNGsc4E5onPxKF25eEziuODqpRMaJ3W+P0nXvj+lcZquXWbOSLRonKVrV85S65VzOleZ83T96gW6fo25aHHj2iWd1u8NLtON6yZX6MaNK3TzxlWNaxa3brTSrZvMdbqpcePGddpfX0/Dhw+nN998k1paWoxKiT2QfQRBEARBkDSHu+sMHjyYpk2bRqead1LT7lJq/KpE+3+BxkKdPaXUvGeRzt4yjXLBkX0VGpU69VV0VLCYju5fIji2fykd+5pZplFNx76ppuPf1Gh8Sse/ZZbTiW9X0IkDzGcaK+lEw0o62VCrsUo7uGBW0yntYOPUIWaNBh9krKXT2oHGae0gwzzAOMMHF41M5MCiRTuwaNEOLFqMg4qz2gHF2SOMfjBxThxImAcT+kHEee0g4rw4eHAeQOyxHzycqtc5rR04nOYDB40z2oGDedDQoh00tGgHDMxZ80BB41zkQOHyefMAQUM7OLiiHRhcucAHBvrBwVVxQCAdFCgOCFq1A4HWK4xxIKAdBFwXBwEa4iDggib+2gFAK2McAFz/nm5q4n9TE/+bhvjfYuG/yejC/8OtGwY3adu2bdSjRw/aunWrUTWxBbKPIAiCIAiS5rDo79z+hRDvxl3zhehD9iH7suz/8MMtunTpkujec+DAAaNyogeyjyAIgiAIksZw153pf54mRLxx1zzIPmTfU/aZw4cP0xNPPEGtra1GBfkHso8gCIIgCJKm8Mm43Ef/VNN2Q/Qh+2GT/dZrV+jKlSuiH38ssv/DrVs0e/Zsuueee+jRRx81Ksk7kH0EQRAEQZA05b333qNNG1bpcg/ZD53sX2+9QidPnqT6+nq6fJlP3L0aVfa1f+j69ev09NNP0+23307t2rUzqkkdyD6CIAiCIEgawt0w+PKap4/spsNfzoXsh0z2r139ns6ePUuTJk0SJ97W1NTQtWv61Xmiyf4PGqNGjaI77riD8vLy6K677jKqyh3IPoIgCIIgSBrCJ1lyF57TmhRD9sMl+yz63HVnwoQJQvTfffddceC3ePFiunqVu/Sw8HvLPqe0tFR05WHZZ/r37y+GOwPZRxAEQRAESUP4EopvvPGGJuTLUiP7q1+hziyGvUZB9tMo+63X9BZ9Fn3uirN8ufb5nzhBU6dOpWeffVY856vu3LzhL/urVy6hn//855bsM6pA9hEEQRAEQdKQFStWiK4YzXsrYpL9Te/fZxO7vA4DaDNkP6tkv/XqJdFH3+y6w2I/Z84cGjhwIG3atImKi4upd+/eYji3/PONtbxkf+0qt+yrWvch+wiCIAiCIGlIPLJf2kOXuX7FRsv+yv7USQhed1oE2c8a2WeB55Nx33nnHdq4caOQ+549e9KQIUNEq351dTXNnDlT3DGXp229djUu2b/77rvFODmQfQRBEARBkDQkZtmf8bgucz2G2rrxbB5+vxjeafhUOlI7UJf/DvfrQt+zQIj+loIHIjLY8QG77M/5bWScxoB5huyvHaJP9+DPqQv/32c8ZD9Jss//81V3uJsO3y358ccfp6VLl4rnXAvPPPMMrV+/Xjxn2ffrxqOSfdWVeSD7CIIgCIIgaUissr9pmN59p9P7k+199ou765L38vCI7Oc9SWVmy/7sp/TxPUeKlv2tpviz7Ne9KoS+88hZomW/shfP+zRVyrKf9wxVoWU/ubLfekn01581axY999xzVFFRQVc1qeeTcs0Tdvmk7S+++EI8v3UzPtlnnIHsIwiCIAiCpCGByD636Buyb7bqD5jt7sazbaTU4m/xU5qwVpL93h+gG09A3Xhef/110WVHXHmnVb+DbmvrVdGf/6OPPqJhw4a1qRsP4wxkH0EQBEEQJA1JVjee/jMr2iz7A+Yp+uxD9oNr2dc4f/48NTU1ia46fNfcm4wm+zdvXBWX3Dx9+rQYr7fsx3eCLuMMZB9BEARBECQNif0E3Uk0tr0ucq4TdPmKPHyCrkL2fbvxmP31e422ZL9y3hjIfsCyr19685LounPj+mVN9JmI7N+6cY2ut14VLf7RrrMP2UcQBEEQBMngxC77+qU3zSvyWLz8vjavcelNlezvX0JlPaXpHSfobhv5U/vyekP2UyH75h10b1z/Xin7t25Gv4MuB7KPIAiCIAiSwYlX9ptwB13IPmQfQRAEQRAkOwLZh+xD9hEEQRAEQXI0kH3IPmQfQRAEQRAkRwPZh+xD9hEEQRAEQXI0kH3IPmQfQRAEQRAkRwPZh+xD9hEEQRAEQXI0kH3IPmQfQRAEQRAkRwPZh+xD9hEEQRAEQXI0scv+UOrXvi9tErL/MY3rkEedhk+F7EP2IfsIgiAIgiCZmrbI/qIeedSvGC37kH3IPoIgCIIgSEYnXtkvff8+XfTlbjwrB1AnQ/I6DS/SZL+A+lvi9xSVGbK/teABSwYHzNFlf9vIn0aGzYPsQ/YRBEEQBEGQpCUu2WeR6zHU3We/uLvo0nNk5pOG7Eda9rdogt9/tib7s5+ivJ4j7S37c35Leb1Go2Ufso8gCIIgCIIEkba07Of1GGaT/c3D76f+Mysk2f8zfdAhIn6dCz4RrfoD5ti78WwbycPQjQeyjyAIgiAIggSStvbZ7/T+x4bsT6VxHbrTIu6zb8j+5hGa/M+KtOyz7KNlH7KPIAiCIAiCpDhtkX3zajx5L3cXXXtEFx5J9o/MetKSvs4dDdnfv5TKe0Zk0OyzX9FLGoY++5B9BEEQBEEQJHmJXfZxnX3IPmQfQRAEQRAkqwLZh+xD9hEEQRAEQXI0kH3IPmQfQRAEQRAkRwPZh+xD9hEEQRAEQXI0kH3IPmQfQRAEQRAkRwPZh+xD9hEEQRAEQXI0kH3IPmQfQRAEQRAkRwPZh+xD9hEEQRAEQXI0kH3IPmQfQRAEQRAkRwPZh+xD9hEEQRAEQXI0kH3IPmQfQRAEQRAkRwPZh+xD9hEEQRAEQXI0kH3IPmQfQRAEQRAkRwPZh+xnlewfP36cdu3aBULIvn37jCoIb1D/4QX1jyBIWwPZh+xnvOw3NjbSmDFjqHv37vT888/TkCFDQAgZNGgQPfTQQ5Sfn091dXVGdeR+UP+ACWv9IwiSeCD7kP2Mlv2SkhLq06cPrVq5jE4e2UdntT8MF4JOncYaHa0gTmoFwZzSCuKUVhACoyh0NgrOHObCMNEL5IxWIGe0AjmjFQjDRaKzVWMbtYhC0Yvl7FHGLBYTvWjOaUVz7thXdE4rGsZeOHvpvCgcqXhO1tPFk1rhnDLhAtKKR6AXkCiiM1oRndEKSHBQK6YIekFpxcQYBSWK6pxWVIworGYdrbgua8UlMIorwnGBVWQehRahReMsXTMLzii6VlF0esFd1wrO5MY1regYLjzBZa0ATa7QDaMAb2oFaHLrBhehXog3NW7cuE776+tp+PDh9Oabb1JLS4tRKbkZ1D/qP8z1jyBIcgLZh+xnpOxzd4XBgwfTtGnT6FTzTq34ShMoRq0QM74YIzKFYoytGLdt20Y9evSgrVu3GlWTO0H9o/7DXP8IgiQ3kH18v2Sk7LPo7Nz+hSiMxIsRspOrxXjp0iXRveHAgQNG5eRGUP+o/zDXP4IgyQ1kH98vGSf73HVh+p+niUJJTjFCdnK5GA8fPkxPPPEEtba2GhWU3UH9o/7DXP8IgiQ/kH18v2SU7PPJiNxH+VTT9iQWI2Qnm4qx9doVunLlivb8SkzF+MOtWzR79my655576NFHHzUqKTuD+kf9m/Uf6844l+ofQZBgYsp+48E9dLjhKwe7BY0HnezxYK/OITdNh/Z5UE9N36nYr6T5u6+p+bCKbzz4lpob3RxpPOBBAx1pUnHQm+ZDFkdtfOfmCHPYg0aLYyZHmSYPmt0cY45YHHdx1M5xk2MeHKcTMidMTghWr/osubL/3nvv0aYNq3S5geyETnaut16hkydPUn19PV2+zCcuasITw5Hn9evX6emnn6bbb7+d2rVrZ1RT9gX1j/oPc/0jCBJMTNnnizgc+2YFAHGxcePG5Mk+/wzNlxc8fUQ7ykzqz0yQnWyQnWtXv6ezZ8/SpEmTxImHNTU1dO2afnWSaLLzgwbvyO644w5RgHfddZdRVdkT1D/qP8z1jyBIcLF345kDQFx88cUXyZN9PsmMuzCc1qQAshMu2WHR4a4LEyZMEKLz7rvvCvFdvHgxXb3KXXpYeLxlh1NaWiq6MphF2L9/fzE8W4L6R/2Huf4RBAkukH2QCEmVfb6E3BtvvKEJyTJt4WmSnbWvUWd+E73GuGVnXT514XF9xtPJ9f+f8bgw9bKzbRh15XUPKM4J2Wm9prdosuhwV4TlyzXZPHGCpk6dSs8++6x4zlcduXnDX3ZWr3SfQJJNSXv910m175T9dUP0eu+t1T5kPyX1//HHH4eq/hEECS6QfZAISZV9ezF6yc4kGtteX0m/YlN2hlE/Y8X9ik3ZGU79xbAnqSwI2Z//O/3NPvg67UhUdha9qC/L4iVaFhLZb716SfRRNrsusNjMmTOHBg4cSJs2baLi4mLq3bu3GC5OWrRaN92yozpbPJtaN2Orf0n2i5+wvde8vO60KCjZn/eMvo4H82kHZB/1jyBIVgWyDxIhDbK/gDYNu0+spNP7k3XZ/6w/dTJX/vL7uuzMfFKfZsSfY5edeGQ/SbKzpJ/+uruOWxqRnS3VtDskss8CwycjvvPOO+IEEJabnj170pAhQ0SrZnV1Nc2cOVPcMZSnbb12NS7Zufvuu8W4bEg8sl/aQ39/nd7/ONKyv3IqbQ5K9tGNB/WPIEjWBrIPEiEtst+0oq8u9z2GCtHZ/D7L/33UqYM2rMMA2qzJzubh94sX0n+WITuznrK9wAFzIrKzdeQDkXEdf2qT/e0jfxoZ9+DP1d14NryuP37wF/r/gueoypCdL8f8IrKMTr/Up+n3MbUsekEf1m+qh+z8mV4x5xP8kapdsv8ZTepijB84Uxedqp7SPHn06pLMlR3+n686wt0U+G6xjz/+OC1dulQ851p45plnaP369eI5y44uOrHLTjZdmSTm+p/xuP7+jPq3ZF/uxmMc7Fr0LIjI/mz7tpDXa5RC9mfThI7G+N7j3N14zF+2DAaWQPZR/wiCZGog+yAR0iP7u4ca3XaeoEV7PqZxQvL707iXedj9NK62ghaJx0/SIm7ZXDVISEzngk+E7JT35HFPUTnL/px/Ey9YF55PaZsp9yw8857WH7PsNKykHf9hvFFP2f8/tFOTnZ2jdbnvMqaMzix8Xp+n72QhO1+O/aX+XJP9XeP0x13HLfGQnRravdWUnU908R8wwyb7eyZ00JdRWKvLzo4RYlzXwtVCdGoGadPl9aKaTJWd1kuiv/KsWbPoueeeo4qKCrqqSQ2flMhyw/2Y+aRVLjR+futmfLLDZEtirX/XL1tO2a8doB8Mvzxcb9k3D3R7jqSjqwfrQq89Fge7cv1Lsm8e5HYeOVdv2Zdlf73+C1eXUQtEy35VH2143u+pCrKP+kcQJCOTOtkvpDFGV2snnYYWKqYH2UCaZN/sxnAfjSvWu/B0Gj6Vmou7i5X3n2n01zdkZ8sIvZXfzgM0fvUy2lqgt+oPmOPuxmMKz4B5im48KtnXHgvZWfCcmI9l32zVH1RqyM6mt/VpY5L9nbR7fHsxjUXnYbTHlH2TgcWW7Owt1OXfTkea/GVmd2N4/fXXRZcFceWRVv0Ob62tV0V/5o8++oiGDRsmpo23GwOTLUmW7Fu/as00u/EUGOevPEUfWPVu/rI1igaIcb+lClP2TXrzr1vuE3R3jHJ/xnl5v6DCjZB91D+CIJmY1Mr+vTSmxj7886H3QvazmLTJvtmVoV8PPklRk/6VLDvv6y3+He43DgCKbLLff7a7z3I6ZT9aN57dH+ii33V8TaRlX5b9AT2Mbj4vU7VD9l+typZuDBfp/Pnz1NTUJLoq8F1z5ds58yUHT58+LcbrLZvxnaDIZEtirv8o3Xg8Zb/jYCrzkv2Or9I2q2X/t8YBwNNU6SP7A+ejzz7qH0GQbEgist+wbSbVVoxRjnMD2c9F0if7Zr99wRO0SMjOVL1LjxjG3XkM2ZG7MRiyXz5H0Y0h0W48Ctn368bT0lxFH3bSHmvPBy+SZMc4QXdZfx7XniZu1WRn6//VBd8m+8V0vrKHvjzur8+yY/bXHzTbkp2aJXMyVnb0Sw9eEl0Xbly/rIkOE5GdWzeu0fXWq6LFM9p1xkMj+7YrUkmyb56g69GNR3Rj8+jG03nkTHuffbn2nd145htX5uHaN2S/qkR7DNlH/SMIkpFpq+wf3D6LXvjdo3TnnXcqx7uJUfZrekkOl0d9p8vT27sCmeN4GeawvDz3OkBwpE/2WXhMse8xTJcdqVUzr8NA2ixdjcTVlceUna+rqbyXNNxxgm5lb2lctBN0VbKvyc6Svsb8PKzfC/q0QvZ12VlmXJEngnHpzS1DI911OrdXy74mO9UDjWm6DKe9mui4uvIMymzZN+8geuP690rZuXUz+h1EOeGRff3Sm+YVeSJIl95M+ARdqfY7DqHtjhN0XV15eDuA7KP+EQTJyLRF9mXRT6rsC9GXp3mb+rqeP0YLtccLXzJlPzLMax0gONIo+xrZeAfRUr3rTpexVZAdyI4toah/yD7qH0GQlCde2XeKflJlf/pjlPfS297j+WCgfS/6XHsM2c8MIPtRZWciLSk1ZafS6LbzS/pwE2QHsmMPZB/1D9lHECSIxCP7KtFPqexL4yOybwy39m2Q/VQC2Y9B9gfZPhwWfcgOZMcdyD7qH7KPIEgQiUf2+WRcp+j/4mf3Kqd1k3g3Hlnw5ceRZaBlP9VA9iE7kJ0kBfWP+ofsIwgSROKR/cSIQfYZWyu9KfQ8r/ZcavW3ZF9Mj2486QKyD9mB7CQpqH/UP2QfQZAgkjrZB7kIZB+yA9lJUlD/qH/IPoIgQQSyDxIBsg/ZgewkKah/1D9kH0GQIALZB4kA2YfsQHaSFNQ/6h+yjyBIEIHsg0RIk+wPpX7t+9ImITsfi7vmdho+FbID2QmJ7KP+Uf+QfQRBYg9kHyRC2mV/UY886leMlk3ITjhlH/WP+s+V+kcQJLhA9kEipFX2S9+/TxcduRvDygHUyXgRnYYXabJTQP2tF/YUlRmys7XgAevFDpijy862kT+NDJsH2YHspDaof9Q/ZB9BkCAC2QeJkD7Z5xX1GKqLjiw7xd1Fl4YjM580ZCfSsrlFE5z+szXZmf0U5fUcaW/ZnPNbyus1Gi2bkJ20BfWP+ofsIwgSRCD7IBHS3rKf12OYTXY2D7+f+s+skGTnz/RBh8gL61zwiWjVHDDH3o1h20gehm4MkJ30BfWP+ofsIwgSRMzvl+vXrwMQNxnRZ7/T+x8bsjOVxnXoTou4z7IhO5tHaPIzK9KyybKDlk3ITiYG9Y/6h+wjCBJEIPsgEdIu++bVSPJe7i66NoguDJLsHJn1pPWiOnc0ZGf/UirvGXmxZp/lil7SMPRZhuykOKh/1D9kH0GQIJIu2S9ftoLue/dTGjuzUjkeZAdpkv2FOkJ2HH2WNXA1EsiOXzFmalD/qH/IPoIgQSTVsv/5F5vpV+8to3ZDVtNrE8u1/+to1IwK5bQg84HsQ3YgO0kK6h/1D9lHECSIpEr2Dx06RH8cX0V/8do6em5sFW3eso3q6/fT8to6+tvX62jE9LYIfy3la/uy/FrVOJAKIPuQHchOkoL6R/1D9hEECSJBy35LSwu9NaWc/ip/Df2mYAmtXrteSL5MzWerNeFfk3ALf20+xD/VQPYhO5CdJAX1j/qH7CMIEkSClP3i0iXULn813T90OVUsW+GSfJOypcvpgfdq6J/fXq5cTqxA9lMPZB+yA9lJUlD/qH/IPoIgQSRI2b/nnU+p07BltGfvPqXkr6xbS78fXUnth1aL1v0/jKtSLscb7saTT7XaYxZ9a//WrYgaeHxDEXWz9nn6dNY8tfnS8AYq6uaYVx6mgYMINZB9yA5kJ0lB/aP+IfsIggSRIGX/hTFV1K+wgvoWVtqEn0/SzZ9cRj95axV9snAJnT2r7Q9bW+nUqVPK5XgTkX1+bmvZZ9G3xF2D5T6/1phH2weKx9epoaibtj/sRkUNPJ0u+GIZ1vTG/EAJZB+yA9lJUlD/qH/IPoIgQSRI2eeW+ubmZiH7vcdX0vYdO2l8caWQ/LEzKsRJuxcuXKA1a9bQQw89JODHqmWp8ZF9q+VeQsi/fR6n1FvLMH4V6FbUYI0DbjJG9r9YyTcWguxAdsIp+6h/1D9kH0EQrwQt+ydOnBDCz4//Jn89vT65XLTy83CGW/RZ8rds2UKbN2+mhx9+WLksNVFkX9kyH6PsG8/1ln/7MBAhI2S/8atSuu22/6QJz1TIDmQnajFmalD/qH/IPoIgQSRI2X/lozJx9R2W+lVr1lHB9HJL8plz57T9nzbdXXfdZc0jP46Oj+yLlnmze45MfLKvmgZEyBjZ55X++Md3CeFRy850+qCj9CJ7jlTLztrXqHOvMZAdyE7KkxH1H0X2d/yH/vkOnN+G+i99gfL6TU5h/c+hV7sU0D7UP4IgIU+Qsn+goYFe/ahcCP+a9RuocJbe0s/UacN4mkceeUQIvgwPcy5LjULcef9m9tU3nxvoXXJilH3bvNL0wEZaZP+LFZN1PmOm0OfLJ9Ftt91Gt27dEsKzubbIITsF1F97Uf1nx9CyCdmH7KQpGVH/vrI/jwoffIaq4qr/iTSo05v0ZVrqX5b9edrjkbQP9Y8gSAgTpOwzpvBPnV8lZJ/77XML//+dVi7Gs9xzNx8ZHuZcDshM0iL7//A//pvB39M/GrDscA4ePEj/9I//r012toy4n/J6Fii6MYykAdaL/i1VOGS/src2vPc4ITvisZju51S4HrIP2Ul+Ul//y6i8p/RZ9Rqty77YBv6dJhi/BHQeOU/IfpVtG1hNVX2k5xv0+t85+hfGsDwatLCMPuxkTvNL+rD0bepitOwv6WcO1+g3Va/9ze9S1/7v0cTO+vCuH9RY9V89wJy+PU3cptX+9mHUdUAPeoWnKyymSV060KQdRv3vGEFdB82WZL+OJncx5+9Ik3c10KeDzecP0pSvtPrfPZoefqUvvSaG9aUV50uNx3n079WofwRBsjtByz7Dwj9IE34+UTd/YgXVrdsg+urzOMh+dpNBffZvk0TH3o2BZafziOlK2TFbNreNfIAGzInIfmWvPBowz2jZnPcMdf6PeUbL/nga2Gc8ZB+yk/SkvP7n/Jt2EDDKatmvEDVvbAN5P6UJa7n+x2kHxM9QpbNlf/7vqMuoBUb9F2rbRCGdWvB7yuvzoXfL/ueG7IvuPB9b9b9ME//BiwzZz/tXmriFa3+aJvIv0TKu//KXqOv45Ubtz6BXBszQZT+vB1Wb9V/1sib9taL29xb2pEk7fVr2l/Smhz9cZ9R/Cb02uESXfU3yl3P9V/fV6qafJvxa/e8dRw+/ugj1jyBIVicVss/w9xBfV//SpUu24ZD97Caj+uyz6KhOUPSW/Rk0XurH3HnkLEN0+PFsTXR02d8+8qfWNIIH82kHZB+yk+Skuv63FvABrtSNZ85vI9sA/7ol6n8uTejolv0doxyf84P/h6pG/4IGLfDpxmPI/q6xv6TBpVL9L3qRuo5barTsTzNqv5omdtZlf/f49vZ1dR5Ge0TLfrFU/zM1mR9Oe0/N0v4fQXt9uvHs+/BB+/K6jqJ60bK/UK//PWO0x6VG/S+if+86jr5G/SMIksVJlex7kViffZBuMkb2TdFRXo1k1SAh8M4+y7LscMu+LDos+LrwO1v20WcfshNMUl3/vi37UWTf3rJv1H8yWvYVsm9v2Tfq3yX7+2hv4cs0qbAndS1c5d9n39ayb9Q/ZB9BkBxOumUfZDcZIfuCaDcVMoTHepF8NRKWHeN554522bf67HccQtttffbzNMnRxB+yD9lJclJe/44++6L+rT77UWRfq/9In33eJkpF/cvDBi3U639JX37u3We/67gleu17yb5GpM++Nv34FUrZv7BjOHXN60nVVv3Lsv8t1Qzi+Z199vPo4Y82QPYRBMnpQPZBImSP7DOObgzxX40ELfuQneCC+k+w/qtepryBs1D/WVr/CIIEF8g+SATIPmQfspOkoP7bWv8raZK42s7Leqs+6j8r6x9BkOCSLtkvX7aC7nv3Uxo7s1I5HmQHkH3IPmQnSUH9o/4h+wiCBJFUy/7nX2ymX723jNoNWU2vTSzX/q+jUTMqlNOCzAeyD9mB7CQpqH/UP2QfQZAgkirZP3ToEP1xfBX9xWvr6LmxVbR5yzaqr99Py2vr6G9fr6MR0yH82QhkH7ID2UlSUP+of8g+giBBJGjZb2lpobemlNNf5a+h3xQsodVr1wvJl6n5bLUm/GuyrIW/lvK1/Wh+bbzjcgvIPmQHspOkoP5R/5B9BEGCSJCyX1y6hNrlr6b7hy6nimUrXJJvUrZ0OT3wXg3989vLlcvJFGrzvQXeb1wuA9mH7EB2khTUP+ofso8gSBAJUvbveedT6jRsGe3Zu08p+XxH3d+PrqT2Q6tF6/4fxlUpl5MpQPbdQPYhO5CdJAX1j/qH7CMIEkSClP0XxlRRv8IK6ltYaRN+Pkk3f3IZ/eStVfTJwiV09qy2P2xtpVOnTimX40ttfmS/ll9ERd26UVGDNryhiLp1K6IGczrb8wZtOml/mF9rLI+73+RTrbRMU+BZ5q3pxXKMaaOMs9ZtjreG219Dth4oQPYhO5CdJAX1j/qH7CMIEkSClH1uqW9ubhay33t8JW3fsZPGF1cKyR87o0KctHvhwgVas2YNPfTQQwJ+rFqWEiHRhtzzcyHpsci+DEu3uQy9r70l/7w8aR57671d6D3HOdfLy+Tlm/+bw7MUyD5kB7KTpKD+Uf+QfQRBgkjQsn/ixAkh/Pz4b/LX0+uTy0UrPw9nuEWfJX/Lli20efNmevjhh5XLUuISZknco8m+ODCI7A91UXe0yMcq9H7jHOsR8Ovg16M97lbUYMyTnUD2ITuQnSQF9Y/6h+wjCBJEgpT9Vz4qE1ffYalftWYdFUwvtySfOXdO2/9p0911113WPPLjaDQUdWub7LOAS+Mioh6Q7Pu04Iv3oO2PI/NmF5B9yA5kJ0lB/aP+IfsIggSRIGX/QEMDvfpRuRD+Nes3UOEsvaWfqdOG8TSPPPKIEHwZHuZclhLROi7JuWhFl7vkmI8NqTYE336QwNMFKPviNUZeh5IoBwSZDGQfsgPZSVJQ/6h/yD6CIEEkSNlnTOGfOr9KyD732+cW/v87rVyMZ7nnbj4yPMy5HC/MlnGBfIKuY1y3/HyppV8XfH1cPuXH2LJvdckRy2nDOAPRdcc2TF5ndgHZh+xAdpIU1D/qH7KPIEgQCVr2GRb+QZrw84m6+RMrqG7dBtFXn8clKvt25JNtQSqA7EN2IDtJCuof9Q/ZRxAkiKRC9pmDBw+K6+pfunTJNhyyn91A9iE7kJ0kBfWP+ofsIwgSRFIl+14k1GffBWQ/1QQi+0cPbaUjDZvoqMUXdPSgyeYIh7bQMYutEb7bJrGdjpsc3uFgp07jTjrR+KXELp0m5iuLk027dZqZPRJ7dY7spVNH9knU6xxl9lucPvq1zjHmG4NvLc4cPyDREOHEQQeHBC0nme/snDos0Whx9nSTRHOEM0cszp05GqHlmMFxi/MtJ+j8WZOTEqfo/DmdC+dOS5yhC+dlWgQXmQvMWYlzOheZ83TJ4oLOpYsSlwTfM99/T3WrPs0J2Uf9o/7DWP8IggSXdMs+yG4Ckf2TTZp8HN4CQFysW7cuJ2Qf9Q/aQrbXP4IgwQWyDxIhwG48cwCIi1iLMVOD+geJkO31jyBIcIHsg0SoqamB7IPMALIPwgxkH0EQr+D7BSQCWvZBxgDZB2EGso8giFfw/QISAbIPMgbIPggzkH0EQbyC7xeQCJB9kDFA9kGYCYPsHz9+nHbt2gVA0tm3b59RZbkZfL+ARIDsg4wBsg/CTK7KfmNjI40ZM4a6d+9Ozz//PA0ZMgSApDNo0CB66KGHKD8/n+rq6ozqy53g+wUkQpbKfiGNaW9/wSadhhYqpgfZAGQ/VlD/uUguyn5JSQn16dOHVq1cRieP7KOzR3fabux28mCdwZoIh5i1dOrQOjr1HbPewrzZm85GA77hm4x+87czTV/oNG+24JvA6WzV2EYt1s3g9BvCnT3KmDeEk9FvDnfu2C6Nr+jc8Qj6TeL0G8SdP7GXzoubxJnwzeLqBRdP7qeLpyTETeO+MdBvGiduHHfmgEGDwUG61BLBupHc2e90jJvJWTeVO9doYNxY7nyzzgXmiIF+gzk7xwVXLxo3mzOxbjqnYdx0zk6Lxlm6Zt6AzuQqwzei029Cd/3aRRs3rl3S4RvSCS7rXDe5QjeMm9PpXLO4dYNvUqffqE5w64b2/w1t+uu0v76ehg8fTm+++Sa1tLQYlZj9geyDRMhi2b+XxtTYh38+9F7IThYD2Y8V1H8ukkuyz911Bg8eTNOmTaNTzTvFHaOtu0h/xXeRNu8kXWq/k/QevpO0fjfpI9p2ZLub9D6+m7T7jtJHbXeUdt5VWsO4q7T/naX97i7tfYfpyF2m7Qca+l2mzTtN6wcY+p2mpbtNawcW9rtN6wcV+t2mo91xWnHXae0AwnbnaT6IMO4+LQ4e5LtPOw8a5DtQ84GCeQdq4yBBvwu1hnEXasb7TtR+d6P2viO1fgBg3pHaeVdq887Uuvjb70ytcct5d+qbtG3bNurRowdt3brVqMrsDmQfJELGyH7DtplUWzFGOc4NZCcXCbPso/5BLsk+i/7O7ZuEYDfumq9JPgPZh+ynTvZ/+OGWuEM1d+85cOCAUZnZm9Q2Jmn7npfeVoybQwtf0sa170WfK8aBzCUjZP/g9ln0wu8epTvvvFM53k2MslPTizpJb6rvdHl6o6Ad43gZ5rC8PPc6QHCEVfZR/4DJFdnnrjvT/zyNjmri3bhrHmQfsp822WcOHz5MTzzxBLW2thoVmp1JbWOSx/6fv1O0755OkP2sI+2yL4tOUmVHiI48zdvU1/X8MVqoPeYjVV12IsO81gGCI4yyj/oHJrkg+3wyLvfRP9W0nQ7vmgvZh+wnXfZbW6/QlSv641hkn5k9ezbdc8899OijjxqVmn1JdWNS35ccjUca/B3TdygLP2Q/20ir7DtFJ6myM/0x189QLhkyChaykxmETfZR/0AmF2T/vffeo00bVgmph+xD9pMt+9dbr9LJkyepvr6eLl++TDdEC7+/7BP9QNevX6enn36abr/9dmrXrp1erFmW1Dcmad8HNqk3vh/4u0UeLhqWzP0Vf3/w/PZ9mDW9bdrIL8qR9arGyd9LEWzfZyAqaZN9lejEX4z24XHJjjQ+IjvGcOuDgOykkjDJPuofOMn2+uduEnx5zdNHdmvvZy5kH7KfVNm/dvUynT17liZNmiROvK2pqaFr17hbT3TZ/+GHH8S++Y477hDb1F133aUXbRYlHY1Jzu8G8f3B3xGyvMvib/vecUi6EH35O4XHO5/r09vWC9lPCmmTfe4/Jhch84uf3auc1k0MshOlsORikh9HlqFeBwiOMMk+6h84yfb655MguQvPaU14IfuQ/WTKPos+d92ZMGGCEP13331XHFguXryYrl69Sjc04feTfU5paanoymNuV/379xfDsyVpaUzi7xEh79IwWfZtjUMGlvw7JN12IKDj+s4y5nXLvrwOfZm2eUFU0ib7iRGD7DCOQtSLh+fVnktFZxWWmN4sTshOqgmT7CcG6j8Xyfb650scvvHGG5p8L9PeT7pkfwaN72h8dr1GJU/2N/wf6sLL7PMhZD/Fsn+99Ypo0WfR5644y5drf8cTJ2jq1Kn07LPPiud81R2+3r6f7K9eucS1fWVT0tOYZDyebkq/Noy/J2TZdwh8hPhkX37slv3IcszpXN93wJcslX2Qi0D2QZjJrfqPQfZnPO54r0/QogRlv7wnL+cBGl+XaMt+IQ3M+x1VmbJf8nv9NT74Bu1Ms+xXD4x8Zl0Law3Rn0Wv5vWk6hyT/dZrl0UffbPrDov9nDlzaODAgbRp0yYqLi6m3r17i+HipF0h/GrZX7vKLfvZ1LqfrsYklmr+rCz5lmXf9QuyjEP2fX9ttk8L2U8+kH2QMUD2QZgJk+yX9tDfW6dhkyMt+599TJszQvZLqPBBXo4k+xnVjadYE3vt9XUZTntFy/4qmtSFX2/uyT4LPJ+M+84779DGjRuF3Pfs2ZOGDBkiWvWrq6tp5syZ4o65PG3rtatxyf7dd98txmVD0iX7Qratrjkasuybz6XPNCLgDtlXTGv7tVkabh/Py5GH68uE7McHZB9kDJB9EGZCI/tmi36Pod7deIq72z+Hl4frsr9qEHXm5x3u1/8XPEXlmuzroh+h88iZuuzP+61t+IB5kuyvG6J3zzEYOH+eIfrSsBJFN56Fz9mmyes7WZf9z9/Wp+v0S2m5L9ISU/YXvWib75UyQ/a3DKWuPKxze/3/AX+kV8Q07WniNl3290zoIObpWjhckv1aQ/QjvFplyH5VL/vwJYbs7/oPepiHdX1Q/1/wIE2Z2Dcy/SulGSH73I2Hr7rD3XT4bsyPP/44LV26VDznWnvmmWdo/fr14jnLvl83HpXsZ9OVeXL3+4Vl33FQoMEyH2ndB4kC2QcZA2QfhJmwyP6mYfeJ99Vp2CS17K/sT+LyfELwK+jIzCf1z+LlAkn2B9GW/UtoS8EDYlzngk/ULft1r4rpO4+cJVr2K3vx+KepkmV/7RB9WQ/m0w7Rsj+Pdqz3aNmXZX/jG/rjvhP1lv2Fz+uvj4Xfkv23aVfTF7Rr7C/FuC7jltDZzX8SIt913FLRsr+sP6/jJVomy772vNpo2d8zvr2Yt+v4FZrsr6CJnXl8D6qOpWV/Z4EQ+Yc/rBMt+58O4vG96VOb7I+i+rOHqP6jB8V68l5ZKFr2V7zC03aij/ekX/avt+pX4Jk1axY999xzVFFRQVevXhGYJ+zySeG87fDzWzfjk30mWwLZB4kA2QcZA2QfhBnIvi77m4fr4/sXm914hlN/8Vk8SWWm7PfUxJ+78Mx+SkzrJfvbRuoHA3Z+ShPWfkbbR/5UPB84L4ZuPJLs7xz9CzHfoIVmN56JNEgs93laYsp+vyl6N57SF8S0LPtfjftX8djOv9LELZLsD5gudeOZobfuD5ihyb7+uOuEz2LqxrOvsKNjPUxHmrxLkv3BJXo3nmV9xPiHJ34uZH//xE7i+WvVmdON5/XXXxdddljyb1zX76BrXnP/o48+omHDhrWpGw+TLcH3C0gEyD7IGCD7IMyERfajdePxlH1uzW+j7A+Y5+6zn3TZ7/QWfRmD7A9epOizr5T9r6h6AL+OHlRd2UP7vwNN3B5bn31T9l9douizn0Wyf13j/Pnz1NTUJLrq3LjB19XXZf/WzWua+F+j06dPi/F6y358J+gy2RJ8v4BEgOyDjAGyD8JMaGT/q0k01jghr98MSfbNE3Q9uvF0Gv7nSDeeGGX/+Byjv36vMZbsV84bo/fZn/eMPs7VjWc1VfXh5fycCje4Zd+rG0+XMRWRbjwK2bf66/efasn+srJpvrJ/vuKP+jxM5/dpj/IE3XrjCj0dadJOoxtPVU99nkFzLNn/dMm8rJN97rN/o/UKXdVE/sb1K0L0Zdnnu+deb70mWvyjXWcfsg/CDGQfZAyQfRBmwiP7+qU3S40r8kSQLr0Z7QTdWGVftO7rLfgWvQ3Z5xN0TeE3GDhfl/1T838XGdaWE3RVst+81d2Vp38U2Te78mhwFx7PS2+acq9hnqDr6sozODtl37yD7k0P2RdEuYMuB7IPwkwgsn/xXDNdOncEgLjIFdlB/YO2EDbZxx10Y7v0pn6ibnvRhUe/9Gb47qAL2Yfsg8QIRPavX78OQNzkiuyo3hsA0YDsQ/bdsi+fpAvZh+xD9kHbyAnZL1+2gu5791MaO7NSOR5kB5D9toH6zw0g+5B9Wfb1k3M1Og+jPbabakH2wyz7qn0HANHIatn//IvN9Kv3llG7IavptYnl2v91NGpGhXJakPlA9uMD9Z9bQPYh+7HdQReyD9kHID6yUvYPHTpEfxxfRX/x2jp6bmwVbd6yjerr99Py2jr629fraMR0CE82AtmPDdR/bgLZh+xD9iH7XkmH7G/ZslWgGgeyi6yS/ZaWFnprSjn9Vf4a+k3BElq9dr2QHJmaz1ZrwrMmCS2ctZSvfRD5tapxIAgg+/6ktv4Z3gbyqVY5DiQbyD5kH7IP2fdKKmV/3759NHn0fBo1uETAj3mYalqQHWSN7BeXLqF2+avp/qHLqWLZCpfkmJQtXU4PvFdD//z2cuVy/KjNh9ynE8i+N6mofzeQ/VQC2YfsQ/Yh+15JhezzzcmKpyykgn6lNPeTMtq9ezft2bOXFsypoFEDS6nogxLxy7Jq3uTQQEXdulFRQ7RxftMBFVkj+/e88yl1GraM9uzdp5SclXVr6fejK6n90GrRuvmHcVXK5fgB2U8vkH1vUlH/biD7qQSyD9mH7EP2vRK07JctXEwFfRZR8dRS2rljp+s7hofN1MbxNGULFiuXkThtk324W3SyRvZfGFNF/QorqG9hpU14+CTF/Mll9JO3VtEnC5fQ2bPazqS1lU6dOqVcjhdcLNYH0K2IGpyi01BE3awPyByuT1NU1E0bxoXHBRhZDoovPiD73gRd//rO01m7xjZQm+8Y7p4+L7/WGO6eJzJOQ7kdASY8sv8e9WvflzYJ2Z9MYzvkUaf3P4bsQ/Yh+z4JWvY/Hl1CBT3LaNoHC2idoosoD+NxPM2U0fOVy0gcu8R7j7NPB9mPTtbIPrdUNjc3C9npPb6StmtHmeOLK4XkjJ1RIX5aunDhAq1Zs4YeeughAT9WLcsLe8FIss+CIg4AjHEsMkJgeJo86lbU4BhuTAfiArLvTeD1r6xdvb6t4TyNvB1YyDtexzzGc7FdeW5HxvOQE0bZ57vo9itGyz5kH7IfLUHL/qT3S+ibb76luTPKqKD/IppcMJ8+W14rmDxSOxDQhvE4noanVS3DG6/GIQ3+HrCGF9ll33Nc5DvH3VCrjfdpnI00RPFw6XUpv9tyh6yS/RMnTgjh4cd/k7+eXp9cLlo5eTjDLZosOVu2bKHNmzfTww8/rFyWF56yLxeciSgMaRrGKDBL/kFcQPa9Cbz+lbXrqG/nc8d2oW87znmuU0NRN325nttRZNowEzbZLx12H/Wb4ejG81l/6mS8707Dp2qCP5z6W5/Fk1RmyP6WEfdbn0//2brsby14wBo2YA5kH7IP2Y8HFnjzu4S/Z5ZUVtPYIQto9GDtoHxeJTU2Nlnj45d9GalxSHzvOOU+hnG2BiaHu/F8ykYl/m7S/ubGgQZ/L9mXJ/tf7pE1sv/KR2Xi6iNcaKvWrKOC6eVW4THnzmk7D226u+66y5pHfhwLvrKvbIF0iw2jF1FuF04QQPa9SUX9M/badda3Y5uQdqiRbce9TdhkHy35noRK9vm99Rjq7rNf3F1Ivvm/3LK/efj91H+WJvuznqK8ngX2lv05PGwkWvYh+5D9NiLLvgkLP+Mc3ibZF7Ie+dzF94XrO0GSeL9xfrLvWI9A1TjrWL7d/3KPrJH9Aw0N9OpH5UJ41qzfQIXaTt8svDptGE/zyCOPCMGR4WHOZXnhKfvOI0wLt9hYuAoVRAOy700q6t/Cql1nfUeei4MCq755uCz78i8E/NzYdjy3I8CESvaNln0h/JLsb37/PupXXCbJ/lQa1yHyWXQe8WfRqt9/lr0bD7fqD5iDbjyQfch+WwlU9vk7RdE4ZP8eYSIS7zcuquwr3cvxfQbZV9Z/2mWfMYVn6vwqITvcb5lbOP/vtHIxnuWGf36S4WHO5XjCf3z+ALyOAqUPSJcZv2lkSQKxANn3J9D6V9auo75tz/lxZPp8a0epT6OftK6Pt+1AlduRND7EhE32zT77nd6fbMj+x5rYd6dF3GffkH3Rmj8z0rLPso+Wfcg+ZD/5BCn7no1DogHI6VBy45DHOD/Zj7VxlpcH2TeqK5KMkH2GhWeQJjx8omL+xAqqW7dB9FXmcQnLPkgrkP3oZH79O3aoIGbCKPvm1XjyejwhuvZ0en+qNr/Usj+zu/U5dOpgyH79YirrGfl8zD775dIw9NmH7EP244MF/mDDQZvUq2Sfp4m7Zd+zccg4EDDHOU7Q9R5nl32rEcn89UDZqATZzyrZZw4ePCiuK37p0iXbcMh+dgPZj43Mrn/IflsJj+zjOvuQfch+vAn6+2VxRTVNGbWASudXibvlOmW/fl+9GMeX6ORpVcsAmUtWyr4XSeuzDNICZD8xMqP+IfttBbIP2YfsQ/a9korvl9OnT1PNshU0ZfQ8mldcRvNn6vBjHsbjeBrVvCCzySnZB9kNZB+EGcg+ZB+yD9n3Siq/Xy5fvkwb1m+k6R8uoGkTSmh1bZ3rl2SQXUD2QcYA2QdhBrIP2YfsQ/a9gu8XkAiQfZAx1NTUYGcMQkuu1D9kH7IP2U9+8P0CEiEQ2dd39nMAiIvcatlUv0cAvEDLPmQfsg/Z9wpkHyQCZB9kDJB9EGYg+5B9yD5k3yuQfZAIkH2QMUD2QZiB7EP2IfuQfa+kQ/a3bNkqUI0D2QVkH2QMkH0QZiD7kH3IPmTfK6mUfb7O/uTR82nU4BIBP+ZhqmlBdgDZBxkDZB+EGcg+ZB+yD9n3Sipkv6mpiYqnLKSCfqU095My2r17N+3Zs5cWzKmgUQNLqeiDEjp06JByXpDZQPZBxgDZB2EGsg/Zh+xD9r0StOyXLVxMBX0WUfHUUtq5YyfV1++3wcNmauN4mrIFi5XLSB6J3pwxWTd3bKCibvZ60elGRQ2q6eMldTehhOyDjAGyD8IMZB+yD9mH7HslaNn/eHQJFfQso2kfLKB1a9e7ZJ+H8TieZsro+cplJI/UyH5tfh7l16rHuajNp7z8WvU4BbEtG7IfhUIa0157oS+9rRg3hxa+pI1r34s+V4wDmQtkP1ZQ/7kIZB+yD9mH7HslaNmf9H4JffPNtzR3RhkV9F9Ekwvm02fLawWTR2oHAtowHsfT8LSqZSQPyH6yyRjZb9g2k2orxijHuTFkJ+9eGlPjGFfTizq1v1cDspNthFn2Uf8Asg/Zh+xD9r2SCtk/ceKEoLm5mZZUVtPYIQto9OCFVDqvkhobm6zxbZL9hiLqZn3upuA6uslYMu2QYNW8PKxbETXI01jP5fnV62AZt4aZ8ylfo4FK9m3TR+TevewY32eAZITsH9w+i1743aN05513Kse7Ydm5l/q+pEnN0ELbuM+HasOHsvBAdrKNsMo+6h8wkH3IPmQfsu+VVMq+CQs/4xwev+yz1Ebr585CbE4jS7DHvDHLvoy8Dkfru3N5Trl3PheiL78u++v0btn3ep/BknbZl0UnXtkZU/M29bVJjfY87zFaOP0xezcGbu203pw2Xsxvf8PW9LZp86jvdHPZjH2+yDhjvdZ0OixeThkD3oRR9lH/wASyD9mH7EP2vZLVsu/XBYbHSX8PXZAlCfaaNx7ZV67DIeSOaQTxyL9GQ1E36lbUIB67ZF/5GkIi+07RiV929P7JlnRokiPkQpYd0a1BEh8eZ/V1dkiKEB25awSPdz7Xp7etF7KTFMIm+6h/IAPZh+xD9iH7Xslm2WcJVgo7C7Ak1BFBjkiw57yxyr7nOhSyr1qPiXO8YnpP2Y/hfZrLCIq0yb5KdNoiO0JQhLxIw2TZ4ceONxdp9XRIik2EdGzCIomTW3bkdejLhOzER5hkH/UPnED2IfuQfci+V1Ih+wcbDtqkXiX7PE3cLfuuLi86dpFn8VVIsMe8+jSR4WJZCtn3XodDyD3XY+CUe9f09tcjLzum9xkwaZN9PhnRKTq/+Nm9ymndSGJjPp5uSo82zCk7DoGJEJ/syI/9WjbN6SA78REm2Uf9AyeQfcg+ZB+y75WgZX9xRTVNGbWASudXibvlOmW/fl+9GMeX6ORpVcvwhWXZ+txNwdXF1xyW79XirZzXkGhjeLf8fI9uPF7rkJZrzmdbj7ZMo5XemtbRku+c3lquPE4sO8b3GSBpk/3EkGVHlwt+0ZZ8yLLj6pog45Ad17Q83nxunxayk3zCJPuJgfrPRSD7kH3IPmTfK0HLPnP69GmqWbaCpoyeR/OKy2j+TB1+zMN4HE+jmhdkNjkh+0I2TLlhZNkxn0tvLiIgDtlRTKsLDa8vMsw9npcjD9eXCdmJD8h+rKD+c5Fcqf/Gg3vocMNXCnYLGpmDTvb4sDfCIRX7qMmP7+o92O9J83dfU/NhL77x4VtqblRzpPGADw10pMmLg/40H7Jx1MV3ao4c9qHRxjGTo0yTD81qjjFHbBx3cdTNcZljPhynEzInZPTuJ6tXfQbZj5HLly/ThvUbafqHC2jahBJaXVtHly5dUk4LsoMslf1Uw7LjkCINlplI6yZIFMh+poL6TwW5Uv8nD62lY9+sACCj2LhxI2QfhBbIfkxAdlIBZD9TQf2nAtQ/AMGRK9uXSuQAiAZkH2QMkB0QZlD/AAQHZB+EGcg+yBggOyDMoP4BCA7IPggzkH2QMUB2QJhB/QMQHJD9+NmyZatANQ5kF5B9kDFAdkCYQf0DEByQ/djh6+xPHj2fRg0uEfBjHqaaFmQHkH2QMUB2QJhB/QMQHJD96DQ1NVHxlIVU0K+U5n5SRrt376Y9e/bSgjkVNGpgKRV9UEKHDh1Szgsym0Bkv+XIDjrTtBWAuMiVnTHqH7QFyH6seN/3Afd1AF5A9v0pW7iYCvosouKppbRzx06qr99vg4fN1MbxNGULFiuXETsNVNStGxU18GP97rK2u8/GTOJ3oJXvwitw3iXXF/l9ZDaByL5qRQBEAztjEGYg+7HCsu++KzRu4gb8wPeLPx+PLqGCnmU07YMFtG7tepfs8zAex9NMGT1fuYzYSZYkJyb7QvS7FVGDNKw2X6uLmIUfsp8ycAJJ7oCdcfyg/nOHMMt+w7aZVFsxRjnODWQfxA++X/yZ9H4JffPNtzR3RhkV9F9Ekwvm02fLawWTR2oHAtowHsfT8LSqZcROBsh+QxF1U84bz2uD7AcOTiDJPbAzjh3Uf+4RVtk/uH0WvfC7R+nOO+9UjncTo+zX9KJO0udovwGcvSuQOY6XYQ7Ly3OvA2Qv+H7xhwX+xIkTgubmZlpSWU1jhyyg0YMXUum8SmpsbLLGt0n2a/Mjn3t+kSTJsrCzPEf+NnrXHmO8bX6z5d17Xn0afZjcRUi05vM4Xp5HCz637ncratAe68svEl19jNfr+T40xAGE+RrM16VYhrSuVJF1so8TSHIX7Iyjg/rPXcIo+7LoJ1X2hejL07xNfV3P9btCL3zJlP3IMK91gOwF3y/+yLJvwsLPOIfHLftCgiXRFcKskH2lgPN47W9lE3zHgYBtekZqcbctMzKcpV8Xenk+ncg4fV3WdH7vg8fJXYKs9TqWkSaySvbDdwKJ/BqiYB1RtnVd6Qc7Y39SUv+2lom21ryJV+0nsj3lLmGTfafoJ1X2pz9GeS+97T2eDwba96LPtceQ/XCA7xd/ApV9l8Q7/cr4njC+f+xi7P4escu4NE7Id+Rv6zogkIXc9Zoi8PKVBxN+78OxboFYl/v1p4Oskv3wnUAS+2uI/OykHp8NYGfsT9D1L37edNRqbZH95KX4yIydXLYQJtlXiX5KZV8aH5F9Y7j12UP2cwl8v/gTpOyL75ZYZF+eXvvbKIXbGO+SfZZtqWWdnchsUDLl3fxfLEccWKi+n7xfm+/78Dx4yIzvwaySfS6wUJ1AEqfsW0WcpWBn7E+w9R/EDikzdnLZQphkn0/GdYr+L352r3JaN4l345EFX34cWQZa9nMNfL/4w98ZBxsO2qReJfs8TdzfL06xFq3g3rJvTSPkmcfLjZn83D2vXcT1eWxiL/rX29cjrrxjuxoPO5c2zLYcaR6/9yHGqXzNsYw0kXWybxZcKE4gscm+ex3mPKJgbcvUhovCiwzPhgMB7Iz9CbT+rR2rYhzjV0+e4+Ta58faeLEOebhzfml4yAiT7CdGDLLP2FrpTaHnebXnUqu/JftienTjyVXw/eLP4opqmjJqAZXOrxIXe+DvEVn26/fVi3H8CzNPq1qGH8JrzM/dy69kh7J9d5gnuOrjfL9jjHnzbQ2gumepej/YXpeGfRrHd5VzeucJurbXby7LvYx0kLWybyIXo0zcsuM8KhN/NI9idEmRUWTWcP25Xmhef2hJ5G3LlAXfKfvSOngej5+sXO9FzCs/z0ywM/YnyPrnHZhqRyjwqyffWjNrX9/RKnfQPL/csqLcvsIBZB+A4MD3S3ROnz5NNctW0JTR82hecRnNn6nDj3kYj+NpVPMGh/R90WZklwonkH0Tl2Q4RVuSE+0DiuXoT3lUx+uRPmjXAYFNfjxeg8D+3Cb7CmHylbkMATtjf1Jb//7jrHryrTWuUe2x45crW+06tgeB7WfV8ADZByA48P0SO5cvX6YN6zfS9A8X0LQJJbS6to4uXbqknDZ4nO7TBvh7JqTfKyaQfQMWFLu0+Im2Mb32QblkXRrvkn1HwcmCztPzY/N/fTmQfVUxZmqyWvbFQay9hi386sm31rhGddm3T+PYJhzzhxXIPgDBge+XbMXpPvHADsV/57bOnztkneyH6wSSNsq+eC/mfOa08vPMBDtjfwKtfw2uIdfJSlpNNvjVk2+tRWqUl23fPozadc0fXiD7AAQHvl9AmMkq2Q/fCSRtlH3G9jod4zIU7Iz9Cbr+Gds2IEu4Xz15jpNr1GhhEQcTjlp2zG/fBsIDZB+A4MD3CwgzWSX7DE4gyV2wM45OZtY/SAaQfQCCA98vIMxkneyb4ASS3AM749jJrPoHyQCyD0Bw4PsFhJmslf3MIhHZN7o3JPzLQPaDnTEIM5B9AIID3y/xs2XLVoFqHMguIPsgY8DOGIQZ1D8AwYHtK3b4nLDJo+fTqMElAn7Mw1TTguwAsg8yBuyMQZhB/QMQHNi+otPU1ETFUxZSQb9SmvtJGe3evZv27NlLC+ZU0KiBpVT0QQkdOnRIOS/IbCD7IGPAzhiEGdR/2yhftoLue/dTGjuzUjkeAAbblz9lCxdTQZ9FVDy1lHbu2En19ftt8LCZ2jiepmzBYuUyUo/ZDdpJtIuduOfTryLHXbLlx7nTvRqyDzIG7IxBmEH9x8fnX2ymX723jNoNWU2vTSzX/q+jUTMqlNMCgO3LH75kc0HPMpr2wQJat3a9S/Z5GI/jaaaMnq9cRlrhi5zEfIPGWK5+CNn3TDpkByeQ5A7YGccP6j93QP3HBncj+OP4KvqL19bRc2OraPOWbUJGltfW0d++XkcjpqdC+NsqAnLLIUgl2L784RsxfvPNtzR3RhkV9F9Ekwvm02fLawWTR2oHAtowHsfTtOWmjYED2fcla2UfJ5DkHtgZxw7qP/dA/fvT0tJCb00pp7/KX0O/KVhCqxWtjzWfrdaEf00KWvhzSwTCALYvf1jg+eaMTHNzs7hZ49ghC2j04IVUOq+SGhubrPHxy76924x+sOvoSiNEXR8mHwzzjR6tGy2KO66b8zi2P5Xs26aXl+sl+/J27djG/dadBWSd7OMEktwFO+PooP5zF9S/N8WlS6hd/mq6f+hyqli2wiX5JmVLl9MD79XQP7+9XLmc5AHZzzawffkjy76JfId2mbhlP2qruyTftmml4Szb8r2InMt0PhdyLgs9b7Pmc8eBhjXcQ/ajrTsLyCrZz+wTSJzFY8JFxEWDn26jgZ2xP6mtf7nlI5H6lXee8SK/hihYrS7ZK2Cof2/ueedT6jRsGe3Zu89V98zKurX0+9GV1H5otWjd/8O4KuVyfFG23Dn269YXvKOubfPK24o+XVFRN224+V3gNZ96nfjeSA7YvvwJVPaNOrda6E1YmqW/hV7r0jbC85nbnGNaQTzyrxH5lcDru0XePqXH0dadBWSV7GfiCSS1+YqdsaLIQHSwM/YntfUfh2j74pCbuIj9NfB26PoiyTJQ/968MKaK+hVWUN/CSpvw80m6+ZPL6CdvraJPFi6hs2fP0oULF+iNKfF24+E6jVZrcj06hMQ2r7wsfizXpmM+lazg+yMQsH35E6jsG7Bs82cunInrXKp/2aXMxza/irZdOMcrpk9I9rN8m8wq2ecCy7QTSCD7yQM7Y39SW//ZJ/uu7TDLQP17wy313I+YZb/3+EravmMnjS+uFJI/dkaF6Lp28eJFqqurE6+jbt0G5XI88dtn8zjp76HXmb8IRKTCWf+O+aTlClh+vFpBQUJg+/KHvzMONhy0Sb1K9nmahL5fjO1FiL+13fB2Ie3DRYt+PuXLB8Oug2oHzu3Q9yA8TtmPtu4sIOtk3yy45J9AoiHvfPOL7MVg7ID18XoBsGBY06taaMzntgLSUCzLnCbycy8XY2T52S4ysYCdsT/pq3+5flV1aYy3zS/vxNXz6tPow+T6jnwJyDtk9zrMeWzboble2zaWHdsP6t8bln2z7vnx3+Svp9cnl9PeffvozJkzVot+ly5dqEOHDmJa1XK8sIuHBNebsvVRqmvX/j4O2Vet00C8piyp3WwA25c/iyuqacqoBVQ6v0pc7IG3IVn26/fVi3H8CzNPq1qGJ/J3g7U98LYQGZZva7DRvxdcB7y25TjGq7Ynx/T25avkXd5eHduu37qzgKyVfRO5GGXilh3nkZv4wxrPeZyHzMfWsi8Vjeey9MK3Csi1jNwHO2N/0lb/cv0q61Kv3chw/blLimxIO1vbMuWdsFP2pXXwPEoJ03C+FzGv/DwzQf1788pHZeLqO1zbq9aso4Lp5eLxpUuX6Ouvv6bq6moaMWIEDRkyhIYOHUp/+tOfaOnSpbR3717l8ly4akbHu/VRqmvfepOms8Z5zacghN8DQYHtKzqnT5+mmmUraMroeTSvuIzmz9ThxzyMx/E0qnlBZgPZN3HtVB0y4viATNGIW/Y9l+X4UhBfBOH6KRc7Y3/SVv8uQXHWpVNofFo2HfWvFCdL4j1eg8D+3LYdut6L/HoiwzIN1L83BxoahPCz6K9Zv4EKZ+kt/a2trfTiiy/SI488QhMnTqSdO3cKwZ88eTI9+eSTYrhqeUpstWnWFtdZZFik9TGWulZMF2U+UaPK1wESBdtX7Fy+fJk2rN9I0z9cQNMmlNDq2jpxYK2aFmQHkH0DewsO45B9hzyYtEn2lctyfinohOmnXOyM/Ulb/Stq016X6vEu2efa92iN5+n5sfm/vhzIPuo/Ags/3ym3qGSxkP2dX+6i2rp1VF9fL7rvlJeXi24+TE1NDf3617+mHTt2KJcFwge2LxBmsk72AzuBRLRYSjLBwmD+xOrzc2vcsu+5LLcwWXgeIOQW2Bn7k7b696pNqy55vNzaz8/d84oDBKuO9XmsbYfXL84TkNfTRtl3bWPy68lcUP/RYeEf9FG5uDJP/qRycSIut+5XVlbSW2+9RY2NjXT48GEaOXIkzZ07V7kMEE6wfYEwk1WyH+gJJBpCRswPwXmCrpCfyAdkiY05XGqxdMu5Q1SUy/KbRpac3AU7Y3/SV/9SbSrrUh+vn1yuj4scAMt1zY8j80Y/IauNss84tjHbuAwF9R8bDdrB7MrVa23dCqZOnUo9evQQ3XYeeugh6tevH40ZM8Y2Hwg32b598ZWmhg8fLt7LjRs3AIiL9evXZ4/sM6k7gcQpFyBoIDvRycwTqJKxrchiH05Q/21nxowZQvC3bt1Ku3btoldffVX04VdNC8JJtm9fXNd8ArrqvQEQDe7amFWybxL0CSSilVNurQeBA9mJncw6gSoJss8t8SHf3lD/AARHtm9fx48fp+eff1753gCIRnFxMf34xz+OWv8ZJ/vJh4VF/hDQqp9qIDvZSiKyr3ffwfaG+gcgSLJ9++Kw7PMJ6Kr3B4Af/KvQj370o6j1HwLZB+kGsgPCDOofgODIBdmfNWuWaKFVvT8AvOADRD6fyVn7f/mXf2lUViSQfRA4kB0QZlD/baN82Qq6791PaezMSuV4AJhckH2+8lTfvn3p4MGDyvcIgAqvVv277rrLqKxIIPsgcCA7IMyg/uPj8y8206/eW0bthqwW199vN6SORs2oUE4LQC7IPoevxDZo0CDlewTASVVVFf3sZz9z1T3z7LPPGlUVScbK/pYtWwWqcSC7gOzED+o/d0D9x8ahQ4foj+Or6C9eW0fPja2izVu2UX39flpeW0d/+3odjZgO4QduckX2OdOnTxeX4Tx79qzyvQLA8BV4fvOb39Btt93mqnuv2s842eej28mj59OowSUCfszDVNOC7ACyEzuo/9wD9e9PS0sLvTWlnP4qfw39pmAJrV67Xki+TM1nqzXhX9OGFn79Ag3puR+D834S2XFfiGwjl2Sfw9sb31ti06ZNyvcLwgvfd+eNN96gX/3qV3T77be7ap75l3/5F6OS7MkY2W9qaqLiKQupoF8pzf2kjHbv3k179uylBXMqaNTAUir6oES0/KjmBZkNZCc6qP/cBfXvTXHpEmqXv5ruH7qcKpatcEm+SdnS5fTAezX0z28vVy4nM0nuPSaUd3UHOSf7HD4AfvPNN4XYcXeN7du3gxCzbt06sQ9+7LHH6O/+7u9ctW6iOjHXTEbIftnCxVTQZxEVTy2lnTt2unb0PGymNo6nKVuwWLmM5GNeOtAJ77zRShMPkB1/MrP+HdjuXOt191ugAvXvzT3vfEqdhi2jPXv3ueqeWVm3ln4/upLaD60Wrft/GFelXE5mAtlPBbko+2b4ZnKFhYXi7tEgvHTs2JHuuOMOz9Z8E79khOx/PLqECnqW0bQPFtA6xU+4PIzH8TRTRs9XLiNZKHeoLDr5tfZhIGYgO/5kUv2b2LaDhiLqZpP6WioqahD/Q/ajg/r35oUxVdSvsIL6FlbahJ9P0s2fXEY/eWsVfbJwiejDfOHCBXpjSlu68Zg1ajyWDlxt+3r5gDa/yNEFJ1+r+W7aOGOY2CbMv6W0DURZhjWdcn7v18fbo7VccZM6e2NUmA8Ccln25bRr1871HgFguDaiJSNkf9L7JfTNN9/S3BllVNB/EU0umE+fLa8VTB6piZA2jMfxNDytahnJArKffCA7/mRS/ZvYtgPP+ncIDFCC+veGW+r5WtEs+73HV9L2HTtpfHGlkPyxMypE17WLFy9SXV2deB116zYol+ONXKP8WPvszVrmujbv7izkW2qFF8Iti3oedRMHuMa08l2hze0j6jKM1+E1v9/r04htmwwfYZF9zqOPPup6nyDccE3EkoyRfT7xgOEd/5LKaho7ZAGNHryQSudVUmNjkzU+ftnxaAFRtKy4W0+MaV07VvkLREOxLHOaSGtQeFtiIDv+BFv/GkI6jM/d1tqoEdN24JAdC2M7kJYfqWtHNzhr+3HPY9u2lNtSdoP694Zl36x7fvw3+evp9cnltHffPjpz5ozVot+lSxfq0KGDmFa1HG/kfbX82PHctY+Xu+A45pNr14S3k1iX4TW/3+vTsMm+sZ24t8nwESbZl/Pkk09S586dQQhRXVozWjJO9k1YeBjn8Lhlx7UD1uAdpYfM23aoivE60k7Yc1k8jbQzVr2OkADZ8SfQ+hdSIMk916H5PK7tICLvkeF6jVt1zfPLy7NwSo80j/FcLNPn9WQzqH9vXvmoTFx9h2t71Zp1VDC9XDy+dOkSff3111RdXU0jRowQN48ZOnQo/elPf6KlS5fS3r17lctzI+2rbY/tzxu4UcZWa1FkX1GXMS/Ds669Xx8/V303iXWa2480PEyEVfYRJJ7kvuwL2XG0gPDO1rFjMCUlbtn3XJZjx616HSEBsuNPoPXvql1JQOLdDgRc1+Y4fzlxLl89jy4sYrvweT3mtNkI6t+bAw0NQvhZ9Nes30CFs/SWfr6j6IsvvihuBT9x4kTauXOnEPzJkyeLFk0erlqeG7nefOpV7J+dtesh+2Jac5xErMvwmt/v9Wl4bpO8HuXBQziA7CNI9OS+7BvYWkB8do5tkn3lspw7bp0wtsRAdvwJsv59Wxvj3Q5MrPl85ISnkUQ9sjz3dmGTfY/Xk82g/v1h4ec75RaVLBayv/PLXVRbt47q6+tF953y8nLRzYfhm8n8+te/ph07diiX5UauN5961TD3zQK/k2sZrlXpb2k24sS8DOX8/q/Pmoe3K9v8jtcWMiD7CBI9GSP7BxsO2qRGJTs8TVtlX2DKhGfLShtkP+ZWGgnX8nIbyI4/gda/X2tjrNuBNo+8TUQOILzlxH6QwcNl2Zd/4eLn0V9PNoP6jw4L/6CPysWVefInlYsTcbl1v7Kykt566y1qbGykw4cP08iRI2nu3LnKZSQXZ22DTAWyjyDRkxGyv7iimqaMWkCl86vE3UKdslO/r16M40sU8rSqZXgi5MbcATilJ7JjsOTDHC53H+BhXrJvjncty2+acH2JQHb8CbT+NbxbGzVi2g7414DINJFtwylE8nN+bM6jHSw4Wvb1E9f18baDa6/Xk8Wg/mOjQTuYXbl6reivbw6bOnWquJsod9vh603369ePxowZY5svCMQ2I38HgIwFso8g0ZMRss+cPn2aapatoCmj59G84jKaP1OHH/MwHsfTqOYFmQ1kJzqpq3+noKeadK8/9aD+286MGTOE4PPNhXbt2kWvvvqq6MOvmjYx5INTJlw1ms1A9hEkejJG9k0uX75MG9ZvpOkfLqBpE0podW2draUHZB+QndgJuv7T32IJ2Uf9A5A8IPsIEj0ZJ/sg94DspJNMa7GE7JtkS7D/B5kMZB9BogeyDwIHsgPCDOofgOCA7CNI9ED2QeBAdkCYQf0DEByQfQSJHsg+CBzIDggzqP+2Ub5sBd337qc0dmalcjwADGQfQaIHsg8CB7IDwgzqPz4+/2Iz/eq9ZdRuyGpxs612Q+po1IwK5bQAQPYRJHoyVva3bNkqUI0D2QVkJ35Q/7kD6j82Dh06RH8cX0V/8do6em5sFW3eso3q6/fT8to6+tvX62jEdAg/cBMG2T9+/Li49CwIH3zvnWQk42Sf39jk0fNp1OASAT/mYappQXYA2Ykd1H/ugfr3p6Wlhd6aUk5/lb+GflOwhFavXS8kX6bms9Wa8K9BCz9wkauyz3eN5hvIde/enZ5//nkaMmQICCGDBg0SNxTMz8+nuro6ozriT8bIflNTExVPWUgF/Upp7idltHv3btqzZy8tmFNBowaWUtEHJaLlRzUvyGwgO9FB/ecuqH9vikuXULv81XT/0OVUsWyFS/JNypYupwfeq6F/fnu5cjkgvOSi7JeUlFCfPn1o1cpldPLIPjp77Es6eXC1QZ3GGp1DzFrBqe/WaazXObyeTgs2aGwUnDn8OZ1pNNlEZ5qYLzQ205lmnZbmLQZbNbZRy5FtdFawnc4eZXbQuaM76dwxky8Ndml8ReeO65w/vpvOn2D2aOyl8yf30gXBPoN6unhyP108ZfI1XTz9jcG3dPGMzqUzBzQaDA7SpZYI3589pPGdzrnDFpfPNeqcb9Jo1rnAHNG5eJSuXDwmcVxw9dIJjZM635+ka9+f0jhN1y4zZyRaNM7StStnqfXKOZ2rzHm6fvUCXb/GXLS4ce2STuv3BpfpxnWTK3TjxhW6eeOqxjWLWzda6dZN5jrd1Lhx4zrtr6+n4cOH05tvvikaSOJNRsh+2cLFVNBnERVPLaWdO3a6dvQ8bKY2jqcpW7BYuQwvaq3b9Jvot/63DWsoom5xXfubl9GNihqijdOvcW5ffxsRrzGyI/NfZmZdyxyy40+Q9Z8wtfnS30yu63BdKz8RUP/e3PPOp9Rp2DLas3efq+6ZlXVr6fejK6n90GrRuv+HcVXK5Xhj1KpUx5F9p/5dYP1N8ms95uFal6aVb0pn2y9jm0gHuST73F1n8ODBNG3aNDrVvJOadpdS41cl2v8LNBbq7Cml5j2LdPaWaZQLjuyr0KjUqa+io4LFdHT/EsGx/Uvp2NfMMo1qOvZNNR3/pkbjUzr+LbOcTny7gk4cYD7TWEknGlbSyYZajVXawQWzmk5pBxunDjFrNPggYy2d1g40TmsHGeYBxhk+uGhkIgcWLdqBRYt2YNFiHFSc1Q4ozh5h9IOJc+JAwjyY0A8izmsHEefFwYPzAGKP/eDhVL3Oae3A4TQfOGic0Q4czIOGFu2goUU7YGDOmgcKGuciBwqXz5sHCBrawcEV7cDgygU+MNAPDq6KAwLpoEBxQNCqHQi0XmGMAwHtIOC6OAjQEAcBFzTx1w4AWhnjAOD693RTE/+bmvjfNMT/Fgv/TUYX/h9u3TC4Sdu2baMePXqIu4rHk4yQ/Y9Hl1BBzzKa9sECWqf4CZeH8TieZsro+cpleMI7bGsnrmHsnLsVNXhPE5VYZT85iLueOr5Iaov87oIK2U9msrr+48R2cOw6CK6lIrHdQPbjAfXvzQtjqqhfYQX1Lay0CT+fpJs/uYx+8tYq+mThEjp79ixduHCB3pgSbzcerlXt8zb377yvV95B2t1IY86j73/Ncbr0i22Etw95WXF/j4BkkEuyz6K/c/sXQrwbd80Xog/Zh+zLsv/DD7fEXfW5e8+BAweMyomejJD9Se+X0DfffEtzZ5RRQf9FNLlgPn22vFYweaQmQtowHsfT8LSqZXji2CHzjrtbfr5tmLv1PxqplP22iBVkP5nJ6vqPE9u24CkvkP14QP17wy31zc3NQvZ7j6+k7Tt20vjiSiH5Y2dUiK5rFy9eFH1V+XXUrdugXI43zlp1POcal/4meu0rppG2A2sbccwrUB5IgCDJFdnnrjvT/zxNiHjjrnmQfci+p+wzhw8fpieeeIJaW1uNCvJPxsj+iRMnBLzjX1JZTWOHLKDRgxdS6bxKamxsssbHLzt2+a7N58fyMIece/0sK+/Y84vs83iOk780jMfStLYDDK9l8HDP1iJ+7cY8Yj5zOud6pXFe7y9AIDv+BF//kc/cqjlFHbDEmNPp0qLXju1XMIFfLUepSVudS3WdhrpMFah/b1j2zbrnx3+Tv55en1xOe/ftozNnzlgt+l26dKEOHTqIaVXL8UbeFzqecy0qG30c8zj2wTbZl2sYpIVckH0+GZf76J9q2m6IPmQ/bLLfeu0KXblyRfTjj0X2f7h1i2bPnk333HMPPfroo0YleSfjZN+EhYdxDo9fdvSdsy4skZ24tcOWW/7lx4y5Mxci4pR747nfONuXBj/WdkLmlwNPJ6/XYxnilwiXbKmQD1rM9eriZRM81fuzlhEMkB1/Aq1/1d/Ypw4iwmMSkffIcJ9atuGsSWke47lrG2RSVJepAvXvzSsflYmr73Btr1qzjgqml4vH/DP1119/TdXV1TRixAhxVYqhQ4fSn/70J1q6dCnt3btXuTw35r7Q/Vx0z1HVo3MeRz3avjvk/TZIC7kg+++99x5t2rBKl3vIfuhk/3rrFTp58iTV19fT5ct84u7VqLKv/SPq/+mnn6bbb7+d2rVrZ1STOqGQfWtnzTtnc6dtDpN35PzYscMQEuPY2dskxm+c7UvD+0vHdxmucQ4crznyZaUdJMiir5hWoJS05ALZ8SfQ+hdCojhHxfG3MOvALfsmXFMeMuR87lmT8jzSgWya6jJVoP69OdDQIISfRX/N+g1UOEtv6eefpl988UV65JFHaOLEibRz504h+JMnT6Ynn3xSDFctz41frfJj8++RT/lW7SvqWdoH27YRR+3G1jADkkm2b19c63x5zdNHdtPhL+dC9kMm+9eufi9+wZw0aZI48bampoauXdOvzhNN9n/Q4H3zHXfcIWr+rrvuMqrKnXDIvrHzLpJbyY3WxCLnjlsh1vYWICYi437j3F8s6i8d32UIWZPnk+DXK0lR5EuIl63Lvm25Hu8vaCA7/gRf/0aNaZ+5qA+fOvCWfQ1rPu9a9q9Jex3bZD8NdZkqUP/+sPDznXKLShYL2d/55S6qrVsnWrm4+055uSYzzc0C/iL89a9/TTt27FAuC4SPbN+++CRL7sJzWpNiyH64ZJ9Fn7vuTJgwQYj+u+++Kw78Fi9eTFevcpceFn5v2eeUlpaKrjxm3ffv318MdyZjZP9gw0Gb1Khkh6dpm+zo8tzNknCPYV4/yzqFm+XEnM5vnE1wfATJdxm6MNlbOrXXnl9EtbaDBF6eW6x4XtsBjur9BQxkx5/g69/AlGqfOrDJvja9LP6Rg1LvWrYfuDprUm755OfyNpT6ukwVqP/osPAP+qhcXJknf1K5OBGXWzwrKyvprbfeEn2a+YS0kSNH0ty5c5XLAOEk27cvvoTiG2+8oQn5svTL/tp/p87G5zdgXvJk/8uxvxTLHFwK2Tdlv/Wa3qLPos9dcZYv1z5/7Xt+6tSp9Oyzz4rn3J3x5g1/2V+9comr/lXJCNlfXFFNU0YtoNL5VeJuoU7Zqd9XL8bxJQp5WtUyoiEkxNE1wC3RGkK0Ix+aKSdmy6jAcYKu9zhZiuTH7ud+y3eNt8RIFyh9mNfP0HxQo40336fH+wsSyI4/gda/7e8t1Z9XHZjDRb0YtWNOZ20rfrXsX5P865q5PPlAIh11mSpQ/7HRoB3Mrly9VnzBmcP4i49bvLjbDt9Fsl+/fuKuovJ8INzkyvbVvLciZtlf1MP+XvNefj8Jsj+GBvCyOv47bU+0ZX/h85TXd6Il+0v66a+zy9iq9Mv+sj7W5/bwxI022V/xivF55nWij/cGJ/utVy+JPvpm1x0W+zlz5tDAgQNp06ZNVFxcTL179xbDueWfb6zlJftrV7llX9W6nxGyz5w+fZpqlq2gKaPn0bziMpo/U4cf8zAex9Oo5s09nDKV3UB2opP79Z9bNR0PqP+2M2PGDCH43Pq5a9cuevXVV0UfftW0IJyES/aHUj/x/u6jcZ9FWvY3r5yaObL/+ZvUhZcjyX5GdeORZD8vrw8tt2S/lF6zhgcr+yzw3E3xnXfeoY0bNwq579mzp7gQAbfq84UJZs6cKe6Yy9O2Xrsal+zffffdYpycjJF9Ez4TecP6jTT9wwU0bUIJra6ts7X0hAHVrxDZDGQndnK3/iH7qH8Akk+YZL/UaNHvV+zfjWdRT/tn0X+2LvtbCx4Qzzt31P8X9Bqtif5oXfQtfkoT1uqyX9VbHv47qpJkf8eoX0jjnqOqz9/QRd/ieVqi6MZjtvSbDF6ky/7uD/5VPO/auX1k/IAZluxXD5Dne5mqDdnfW9hBDOvapaP4/9VBPfVpuoykfUL219LkLjzPgzT5I132H+76oPj/tWWG7Ff31Z530obzdMHKPv/P3/X83c53S3788cfFVcb4OdfCM888Q+vXrxfPWfb9uvGoZF91ZZ6Mk/1wInd9YHJLiiA7ALKP+gcgCMIj+5NobHt+b0arvofsbx5+v3j//WfpLftlhvgPmC3JfkExHfummMZ35HE/pfFr1S372//jp9r4n1PhOm7VH08DeXyfQiH7O0bpn3mX0aV6y/7GRbTTo2Vflv1d44zHi/SW/WX99df3Spkk++Nr6NyxGprYmce1p4nbvqI94/kAQHu8nVv2i+lVXsfAmTbZzxs022jZX23IfUea/KUm+7tG0sM8fvA8q2X/tY9G6cNeWajJ/uf0MUt+17H0sejKE7Dst14S/fVnzZpFzz33HFVUVNBVTer5pFzzhF0+aZtrm5/fuhmf7DPOQPZB4EB2QJhB/QMQHJB9WfaLaFwHnuZJKjO78cx+Sv9Meo60ZH/AHL0bT0UvntZL9ufRhAd5vIMHX6cdhxZQoRj3e6qKoRtPRPar6MNOPN+LtMzsxrPoD/py+0+zZP+Vcr0bj96Sz7K/whB/B12G015J9l+tkrrxLOmlD1uiyf6S3trjB2nyrkg3nteWHaLlQuz70vLdY4T4v1bdZPTbT003ntdff1102RFX3mnV76Db2npV9Of/6KOPaNiwYW3qxsM4E9MWwbcq575DvGHduHEDgLjgn6OyeWeM+geJkO31ny7ZL1+2gu5791MaO7NSOR4AJjyyH0s3Hm/Z71zwSRtl/xmqcvXZT77sd/2gOgbZ70HVij77Stk/M0dv/R80jz4drP3f5T9on9Rnn2X/e+Pxw107af/3pRXnUyP71zXOnz9PTU1NoqsO3zX3JqPJ/s0bV8UlN/kcPR6vt+zHd4Iu40xMWwSfGMUnDqg2NACiwdfGzuadMeofJEK213+qZf/zLzbTr95bRu2GrBbX3283pI5GzahQTgtAmGS/aUVf6iTe3xO0SJJ9+QRddTeeB2j86kg3nthkfyVVGv31B84zZX8CVc3X++xX9dHHubrxHJ5Ig3g5nd6kL2PuxvOvNHFLpBuPW/a/svrrv1Jpyn4xVVf5yf43VDNIn4d5+MN1thN0heyfWxA5KfeVUnHZTZXsr3hVn+bfPz1On5mPl5+kz17THw9ZEZ/s65fevCS67ty4flkTfSYi+7duXKPrrVdFi3+06+wnVfaPHz9Ozz//vHJDAyAaxcXF9OMf/zhqMWZqUP8gEbK9/lMl+4cOHaI/jq+iv3htHT03too2b9lG9fX7aXltHf3t63U0YjqEH7gJlewze8wr8kg4Lr0Z7QTdWGX/RMM8owU/wkBD9vkEXVP4dZ6jKiH7G2hJX3NY207QVcn++ePurjyvRpF9syuP6LvPXXhcsv+d0ZWHu/Do19l3y/4W+vhhfZp//3QbTTUfL99hPW6L7Jt30L1x/Xul7N+6Gf0Oupykyj6HZYfvYKja2ADwg1vFf/SjH0UtxkwO6h+0lWyv/6Blv6Wlhd6aUk5/lb+GflOwhFavXS8kX6bms9Wa8K8JuIVfv1CC7f4PIOMJn+zjDrqxX3rTuAoPX5XHvPRmBt1BNyNln88a5hYq1cYGgBcsyHxDHGch/uVf/qVRWdkR1D9oC7lQ/0HKfnHpEmqXv5ruH7qcKpatcEm+SdnS5fTAezX0z28vVy4HhBfIPmTfU/atk3Qz7w66GSv7fOvyvn370sGDB5UbHAAqvFo177rrLqOysiOof9AWcqH+g5T9e975lDoNW0Z79u5TSv7KurX0+9GV1H5otWjd/8O4KuVyQHiB7EP23bJvnJyr8fCHazXJh+zHtUXwrfwHDRqk3OAAcFJVVUU/+9nPXEXI8F3isi2ofxAPuVL/Qcr+C2OqqF9hBfUtrLQJP5+kmz+5jH7y1ir6ZOEScU3qCxcu0BtT4u3GY9zfoTY/8vnn19rGFfFNDPO6UZEmNbZ7QTQUUTfrbxbDcJAWIPuQfc+WfdUddCH7sWX69OniMoS881VteAAwfAWS3/zmN3Tbbbe5ilBViNkS1D+IhVyq/yBln1vquasTy37v8ZW0fcdOGl9cKSR/7IwKcdLuxYsXxeVv+XXUrdugXI43ej98u+Cb/fL1x92KGqRxprzzYz4A4McSLPry3c35IMJaNkgHkH3IPmQ/ANnncHH26NGDNm3apNz4QHg5ceIEvfHGG/SrX/2Kbr/9dlcBMjwum4P6B17kYv0HLfv8mbHw8+O/yV9Pr08up7379tGZM2esFv0uXbpQhw4dxLSq5XgjC7xOQ1E3Q/Cd46TnXhIv/0JgIss/SDmQfcg+ZD8g2efwFRTefPNN8cXGP1dv374dhJh169aJHdZjjz1Gf/d3f+cqPJNsOzHXK6h/IJPL9R+k7L/yUZm4+g5L/Ko166hgerl4zDea+frrr8XdJUeMGCHOfRg6dCj96U9/oqVLl9LevXuVy3PTNtnnaTxlHy35GQVkH7IP2Q9Q9s1s3bqVCgsL6aGHHgIhpmPHjnTHHXd4tmaa5FpQ/4DJ5foPUvYPNDQI4WfRX7N+AxXO0lv6+YT4F198UVzJaOLEibRz504h+JMnT6Ynn3xSDFctzw0LvLOrjtk9x1v29X75Ht14VMNB2oDsQ/Yh+ymQfTnt2rVzrRAAhmsj14P6B15kc/0HKfsMCz/fKbeoZLGQ/Z1f7qLaunVUX18vuu+Ul2sy09ws4HMhfv3rX9OOHTuUy3KjC7x+Eq7+t4hcR99H9hlblx2v4fKBBEgH4ZH9odSvfV/aJGT/YxrXIY86DZ8K2Yfsp172OY8++qhrpSDccE2EJah/4CTb6z9o2WdY+Ad9VC6uzJM/qVyciMut+5WVlfTWW29RY2MjHT58mEaOHElz585VLkONU+hBrhFG2V/UI4/6FaNlH7KfRtl3pnPnziCEIHpUnw3IfXIpqZB9pqHhIK1cvVb01zeHTZ06VZwMz912uLtUv379aMyYMbb5/IHs5zphk/3S9+/TRV/uxrNyAHUy3nen4UWa7BdQf+uzeIrKDNnfWvCA9fkMmKPL/raRP40MmwfZh+wjCIIgoUuqZF/FjBkzhODzuTG7du2iV199VfThV02rBrKf64RK9vm99Rjq7rNf3F106Tky80lD9iMt+1s0we8/W5P92U9RXs+R9pb9Ob+lvF6j0bIP2UcQBEHCnHTKPgDRCGPLfl6PYTbZ3zz8fuo/s0KS/T/TBx0in0Xngk9Eq/6AOfZuPNtG8jB044HsIwiCIKEOZB9kMmHts9/p/Y8N2Z9K4zp0p0XcZ9+Q/c0jNPmfFWnZZ9lHyz5kH0EQBEGUgeyDTIav0BQ22TevxpP3cnfRtUd04ZFk/8isJ63PoXNHQ/b3L6XynpHPx+yzX9FLGoY++5B9BEEQJHyxy8gcADKK8LTs4zr7kH3IPoIgCBJAIPsgk4HsQ/Yh+5B9BEEQJIFA9kEmA9mH7EP2IfsIgiBIAoHsg0wGsg/Zh+xD9hEEQZAEAtkHmQxkH7IP2YfsIwiCIAkEsg8yGcg+ZB+yD9lHEARBEghkH2QykH3IPmQfso8gCIIkkNTJfiGNaa99Ub30tmLcHFr4kjaufS/6XDEOhBfIPmQfsg/ZRxAEQRJIIrLfsG0m1VaMUY5zY8h+3r00psYxrqYXdWp/rwZkH9iB7EP2IfuQfQRBECSBtFX2D26fRS/87lG68847lePdsOzfS31f0qR+aKFt3OdDteFDWfgh+8AOZB+yD9mH7CMIgiAJpC2yL4t+vLI/puZt6muTeu153mO0cPpj9m483Npvfblp461fBiTM6W3T5lHf6eayGft8kXHGeq3pdPjAw3kwAtIHZB+yD9mH7CMIgiAJJF7Zd4p+/LKv98+3pFuTfCHXsuyLbj2S+PM4q6+/Q9KF6Mtdg3i887k+vW29kP2sALIP2YfsQ/YRBEGQBBKP7KtEvy2yLwRdyLs0TJZ9fuz4cou0+jsk3XYgoGMTdunAwS378jr0ZUL2MwvIPmQfsg/ZRxAEQRJIPLLPJ+M6Rf8XP7tXOa0bSezNx9NN6deGOWXf46o98cq+/NivZd+cDrKfWUD2IfuQfcg+giAIkkDikf3EkGVfl2v+0pK789j74EemteOQfd9uPPZpIfvZB2Qfsg/Zh+wjCIIgCSRdsi9k2+qaoyHLvvlc+nKLCLhD9hXT6kLP64sMc4/n5cjD9WVC9jMLyD5kH7IP2UcQBEESSOpkP9Ww7DsOCjRY5iOt+yDTgexD9iH7kH0EQRAkgUD2QSYD2YfsQ/Yh+wiCIEgCyV3ZB7kAZB+yD9mH7CMIgiAJBLIPMhnIPmQfsg/ZRxAEQRIIZB9kMrki+40H99Dhhq8c7BY0HnSyx4O9OofcNB3a50E9NX2nYr+S5u++pubDKr7x4FtqbnRzpPGABw10pEnFQW+aD1kctfGdmyPMYQ8aLY6ZHGWaPGh2c4w5YnHcxVE7x02OeXCcTsicMDkhWL3qM8g+giAIklgg+yCTyRXZP3loLR37ZgUAcbFx40bIPoIgCJJYIPsgk8mtbjzq9wiAF7HWP2QfQRAE8YwpIy1HdtCZpq0AZBSQfRBmIPsIgiBIwjFl5Pr16wBkHJB9EGYg+wiCIEjCSYfsb9myVaAaB4AMZB+EGcg+giAIknBSKfv79u2jyaPn06jBJQJ+zMNU0wLAQPZBmIHsIwiCIAknFbLf1NRExVMWUkG/Upr7SRnt3r2b9uzZSwvmVNCogaVU9EEJHTp0SDkvCDeQfRBmIPsIgiBIwgla9ssWLqaCPouoeGop7dyxk+rr99vgYTO1cTxN2YLFymUkTEMRdZO+KPNrFdPEg7W8fKpVjY+LWspPxmtKiAYq6taNihpU49ILZD9WCmlMe/tnZNJpaKFiepANQPYRBEGQhBO07H88uoQKepbRtA8W0Lq1612yz8N4HE8zZfR85TISoaGom/blaJfy2qIiapCex0ttfh51K2pQjosFnj+9cu/ELvuZ9Pog+7HCsn8vjamxD/986L2Q/SwGso8gCIIknKBlf9L7JfTNN9/S3BllVNB/EU0umE+fLa8VTB6pHQhow3gcT8PTqpbRdrjVPBmt73YSlWHIfuyEWfYbts2k2ooxynFuIPu5CGQfQRAESTipkH3z1u/Nzc20pLKaxg5ZQKMHL6TSeZXU2NhkjU+67NfmU15+rXoc49m9xzhI4Pkd41iEzWHWsm3LkQ4uFMNt83fjXxgcByRteE3er0Gfp0j8uuGeR/zqId5DRPbdr89/2ZHXw8N5OY55EySssn9w+yx64XeP0p133qkc7yZG2a/pRZ2kz7HvdHl6e1cgcxwvwxyWl+deBwgOyD6CIAiScFIp+yYs/IxzeLJln2XWs7uNEFi5nzrLq/mcH2tfqqbMs9BK8mpr+eblyGJrHWDIy7Njbzk3pJkft/U1+b4GqcuRNZynk1vzfVr2oyzbXJ7eXUpenuNgpI2EUfZl0U+q7AvRl6d5m/q6nj9GC7XHC18yZT8yzGsdIDgg+wiCIEjCyXrZZ/kUX4CSFJtyapNbB4pxkYMDFlmzBZuxP7fJsLV+CV6/z7o9Zb+tr8nrNfjNY5N4H9mPddmO125/j20nbLLvFP2kyv70xyjvpbe9x/PBQPte9Ln2GLKfGUD2EQRBkIST3bLPkmoKJ8un/kVotWSLlnJZdiXaKtYaLhlWSL1o6U6l7CvX5ZxHXx6v2/xfHx5F9mNZtmM6yL6eeGRfJfoplX1pfET2jeHWZw/ZTyWQfQRBECThpEL2DzYctEm9SvZ5mja17EeBpVPugiPENl97HrXLjIdYa9hE1rWcKMM1PGW/ra/Jc13OeTR4Wu39Rw6SGB/Zj3XZkH1l4pF9PhnXKfq/+Nm9ymndJN6NRxZ8+XFkGWjZTzWQfQRBECThBC37iyuqacqoBVQ6v0rcLdcp+/X76sU4vkQnT6taRqKIVnbri1ISVxZU6QtUKeCK5y6RdSzH+mXBNtwhxjzMqzuMNU/sr0n9GpzzMCz2zkuH2mXf/vqk537L5mkg+67EI/uJEYPsM7ZWelPoeV7tudTqb8m+mB7deNIFZB9BEARJOEHLPnP69GmqWbaCpoyeR/OKy2j+TB1+zMN4HE+jmhckG4fYZziQfRBmIPsIksIcP36cdu3aBUIIt0bnclIh+yaXL1+mDes30vQPF9C0CSW0uraOLl26pJwWBAS3wNu6NWU2kH0QZiD7CBJwGhsbacyYMdS9e3d6/vnnaciQISCEDBo0iB566CHKz8+nuro6ozpyJ6mUfZBO9O47tu5EWQBkH4QZyD6CBJiSkhLq06cPrVq5jE4e2Udnj31JJw+uNqjTWKNziFkrOPXdOo31OofX0+nDGww2Cs4c/pzONJpsojNNzBcam+lMs05L8xaDrRrbqOXINjor2E5njzI76NzRnXTumMmXBrs0vqJzx3XOH99N508wezT20vmTe+mCYJ9BPV08uZ8unjL5mi6e/sbgW7p4RufSmQMaDQYH6VJLhO/PHtL4TufcYYvL5xp1zjdpNOtcYI7oXDxKVy4ekzguuHrphMZJne9P0rXvT2mcpmuXmTMSLRpn6dqVs9R65ZzOVeY8Xb96ga5fYy5a3Lh2Saf1e4PLdOO6yRW6ceMK3bxxVeOaxa0brXTrJnOdbmrcuHGd9tfX0/Dhw+nNN9+klpYWo1KyP5B9kMlA9kGYgewjSADh7jqDBw+madOm0anmndS0u5QavyrR/l+gsVBnTyk171mks7dMo1xwZF+FRqVOfRUdrV+ss3+J4Nj+pXTsa2aZRjUd+6aajn9To/EpHf+WWU4nvl1BJw4wn2mspBMNK+lkQ63GKu3ggllNp7SDjVOHmDUafJCxlk5rBxqntYOM08ZBxhk+uGhkIgcWLdqBRYt2YNFiHFSc1Q4o9AMJ/WDinDiQMA8m9IOI89pBxHlx8OA8gNhjP3g4Va9zWjtwOM0HDhpntAMH86ChRTtoaNEOGJiz5oGCxrnIgcLl8+YBgoZ2cHBFOzC4coEPDPSDg6vigEA6KFAcELRqBwKtVxjjQEA7CLguDgI0xEHABU38tQOAVsY4ALj+Pd3UxP+mJv43DfG/xcJ/k9GF/4dbNwxu0rZt26hHjx60detWo2qyO5B9kMlA9kGYgewjSABh0d+5/Qsh3o275gvRh+xD9mXZ/+GHW6KfOXfvOXDggFE52RvIPshkIPsgzED2ESTJ4a470/88TYh44655kH3IvqfsM4cPH6YnnniCWltbjQrKzkD2QSYD2QdhBrKPIEkMn4zLffRPNW03RB+yHzbZb712ha5ciV32f7h1i2bPnk333HMPPfroo0YlZV/SIftbtmwVqMYBIAPZB2EGso8gScx7771Hmzas0uUesh862b/eeoVOnjxJ9fX14vKQN65rwh9F9rV/hIw8/fTTdPvtt1O7du2MasqupFL2+TKmk0fPp1GDSwT8mIeppgWAyRXZV703AKIB2UeQJIW7YfDlNU8f2a0dSc+F7IdM9q9d/Z7Onj1LkyZNEife1tTU0LVr+tV5osn+Dxr8RX7HHXeIHfBdd91lVFX2JBUy0tTURMVTFlJBv1Ka+0kZ7d69m/bs2UsL5lTQqIGlVPRBCR06dEg5Lwg3kH0QZiD7CJKk8EmW3IXntCbFkP1wyT6LPnfdmTBhghD9d999Vxz4LV68mK5evUI3rrPwe8s+p7S0VHTlMXfC/fv3F8OzJUHLSNnCxVTQZxEVTy2lnTt2Un39fhs8bKY2jqcpW7BYuYyoNBRRN+mLML9WMU08WMtLxjXpayk/Ga8pIbLrrrkykP22Ub5sBd337qc0dmalcjzIDiD7CJKk8CUU33jjDU3IlwUj+6sHU2feQHuOTEz21+dTF15On8LUyv62YdSV1ztgRk7Jfus1vUWfRZ+74ixfrn3+J07Qxx9/TM8++6x4zlfduXnDX/ZXr1zi2hlnU4KWkY9Hl1BBzzKa9sECWrd2vUv2eRiP42mmjJ6vXIYfDUXdtM/cLuW1RYndIbY2P4+6FTUox8UCz59euXdil/3Me33eQPbj4/MvNtOv3ltG7Yasptcmlmv/19GoGRXKaUHmA9lHkCTF3BnrJ1D5yf5Q6ufY4Jh+xWmU/ZLfu15PlzFlkP0ost969ZLoo2923WGxnzNnDg0cOJA2bdpExcXF1Lt3bzFcnLRrte67ZX/tKrfsZ1PrftAyMun9Evrmm29p7owyKui/iCYXzKfPltcKJo/UDgS0YTyOp+FpVcvwhlvNk39H2ERlGLKfPCD7scHd4P44vor+4rV19NzYKtq8ZZs4mF5eW0d/+3odjZjeFuHPhF+lwg1kH0GSlLhlv0M/2syt+p/1p05iw+tOi9Ig+1V99I2+y+hSW8v+zs8h+9FknwWeT8Z95513aOPGjULue/bsSUOGDBGt+tXV1TRz5kxxx1yetvXa1bhk/+677xbjsiGpkH3+xYRpbm6mJZXVNHbIAho9eCGVzqukxsYma3zcsl+bT3n5tepxjGf3HuMgged3jGMRNodZy7YtRzq4UAy3zd+Nf2FwHJC04TV5vwZ9niLx64Z7HvGrh3gPEdl3vz7/ZUdeDw/n5TjmDRjIvj98N++3ppTTX+Wvod8ULKHVil/Paj5brQn/moRb+LPpIDFXgOwjSJKSsOy//L7Rsj+c+ksbY17eU1Tmkv1PaHxHY3yvUbrsz/mtNE8eDZgXkf3t//HTyLgHfx6R/ZLf6cP4sV83ntLnI/Mz/T6OyP6iF+3j+k+zZH/3+PaR4Z3b52Q3Hr7qDnfT4bslP/7447R06VLxnGvhmWeeofXr14vnLPt+3XhUsp9NV+ZJpeybsPAzzuHxyj7LrGd3GyGwcj91llfzOT/W/lamzLPQSvJqkxpejiy21gGGvDw7dikypJkft/U1+b4GqcuRNZynk1vzfVr2oyzbXJ7eXUpeXmrED7LvTXHpEmqXv5ruH7qcKpatcEm+SdnS5fTAezX0z28vVy4nViD7qQeyjyBJStyyL9OhP222+uxPpc21Zst+gS7+PQtssr+14AExX+eCYr1lv+5VMa7zyFmiZb+yFy/3aapk2Z/3jL6O3h+Ilv0do4wNXhN883GXUaVC9s1WfkGnN+lLlv3P39QPDvpO1lv2S1/Qx7Pwb/6TLvD9p+ot+4v+oI9j4S97SX88YLpo2d9jin8Oyf711kuiv/6sWbPoueeeo4qKCrqqST2flGuesMsnbfOOlp/fuhmf7DPZkmyWfbvcRh8XOTiQBFxgf26TGl6O428rJNxn3Z6y39bX5PUa/OaxSbyP7Me6bMdrT5X4Qfa9ueedT6nTsGW0Z+8+peSvrFtLvx9dSe2HVovW/T+Mq1Iux5tIDfDf2/r8zboSB6/mcLNWjHmsuuLhql+EpGEaOIhQA9lHkCQlbtk3W/b3DDPkP9KNZ/Pw++0bZYdBtMWUfRPRwq9349k2Upd/Oz+lCWs/o+0j9Vb9gfPc3Xicsq+37H9Eg3i8IftfjvmFmGZQqdmNZwoN5vF5L9CH4/5VjBu8yOzGM41eEeNeookf6HL/Snnud+N5/fXXRZcdceWdVv0Ouq2tV0V//o8++oiGDRvWpm48TLYkq2VfyIYkpDJtFWsNlwwrpF60dKdS9pXrcs6jL4/Xbf6vD48i+7Es2zEdZD+2BLl9vTCmivoVVlDfwkqb8PNJuvmTy+gnb62iTxYuEQ0bfInpU6dOKZfjjb0GbH/zRH8R8qw7IAPZR5Akpe2yv4gWvaxveHySrin6nYYXRVr2Zdnv+RQN4P/z/o3KHbI/YN6nrj77frKv7sYTo+x3eoeWeMl+5/doWQhk/7rG+fPnxfXfuavOjeua6DOa7PMddPmSm6dPnxbj9Zb9+E7QZbIlqZD9gw0HbVKvkn2eJm7Z12ABibQWMppQ5GvPxYFARHB1CTGfOyU5itTYlhNluIZdhKVlt/U1ea7LOY8GT6u9/6Ju8nAf2Y912ZD9NiXI7Ytb6vk8GJb93uMrafuOnTS+uFJI/tgZFeKk3QsXLtCaNWvooYceEvBj1bLU2GvA9jfnenD8TeL6RUjUXWJXvQoDkH0ESVLaLvv2ln1d/O+ncdyVZ9UgXfBtsj+Sjs15St9Ye47Su/GY/fV7jbZkv3LeGL3Pvk83nlOHFlDhg9pj7fnABWrZ9+rG00X7gvDqxtP1g+pQdOPRL715SXTduXH9sib6TET2b924Rtdbr4oW/2jX2Yfs+7O4opqmjFpApfOrxN1ynbJfv69ejONLdPK0qmVEQ289ND97SVwdQqIUcMVzl8g6lmMJim24Q3B4mJf8WPPE/prUr8E5D6O3ntolyi779tcnPfdbNk8D2Y87Qcs+b0Ms/Pz4b/LX0+uTy0Urv3kQzS36LPlbtmyhzZs308MPP6xclhp7DbhkX9kyH1/dmNtuKmopG4HsI0iSErfs27iPxq00+uzXDjCuzqPR4X617H+9lMp7GtN0fJW2fVND24wWfIvehuwfWEmVvaXh8gm6xqU3bX31TUzZT+AE3WUDpOE5eoKueQfdG9e/V8r+rZvR76DLgexHh38lqVm2gqaMnkfzisto/kwdfszDeBxPo5oXxItD7LMcyL43r3xUJq6+w1K/as06Kphebkk+c+6ctv/TpuM7e5vzyI+j4yP7yfxFyPPAAUD2ESRJiV3223hTLdxBF7KfwUmF7JvwFZA2rN9I0z9cQNMmlNDq2jrRjUo1LWgjLE62bk3ZDWTfmwMNDfTqR+VC+Nes30CFs/SWfqZOG8bTPPLII0LwZXiYc1lqFOLOn38yfhGyzStND2xA9hEkSYHsQ/Yh+6mRfRAkevedXBMnyL4/pvBPnV8lZJ/77XML//+dVi7Gs9xzNx8ZHuZcDshMIPsIkqRA9iH7kH3IPshMIPvRYeEfpAk/n6ibP7GC6tZtEH31eRxkP7uB7CNIkgLZh+xD9iH7IDOB7MfGwYMHxXX1nd3iIPvZDWQfQZIUyD5kH7IP2QeZCWQ/MRLrsw/SDWQfQZIUyD5kH7KfWhnZsmWrQDUOABnIPggzkH0ESVIg+5B9yH5qZISvsz959HwaNbhEwI95mGpaAJhckX2zDz0A8bB69WrIPoIkI5B9yD5kP1jZ5zsRF09ZSAX9SmnuJ2W0e/du2rNnLy2YU0GjBpZS0Qcl4m6fqnlBuMkV2T97fA+1aPtWAOIBso8gSUrssj+U+rXvS5uE7H9M4zrkUafhUyH7kH3Ivg9lCxdTQZ9FVDy1lHbu2En19ftt8LCZ2jiepmzBYuUyYke+oRRf77utd+Z0XCs8LuK4qZW4MRHXC64z7kWuyL7+/TIHgLhANx4ESVLaIvuLeuRRv2K07EP2IfvR+Hh0CRX0LKNpHyygdWvXu2Sfh/E4nmbK6PnKZcROsu4emxrZ5xsM6TciUo8HkH0QbiD7CJKkxCv7pe/fp4u+3I1n5QDqZGyEnYYXabJfQP2tDfMpKjNkf2vBA9bGOmCOLvvbRv40MmweZB+yn9oELfuT3i+hb775lubOKKOC/otocsF8+mx5rWDySO1AQBvG43ganla1jNjJPtlv2y8P4QGyD8IMZB9BkpS4ZJ83tB5D3X32i7uLLj1HZj5pyH6kZX+LJvj9Z2uyP/spyus50t6yP+e3lNdrNFr2IftpSypk37yFP1/je0llNY0dsoBGD15IpfMqqbGxyRrfJtmXb7ufXySJtizsLOCRv40u2MZ42/zmbf2959Wn0YfJot5Q1E0a53gN0jrMeVj07cvUhlvdeuzThhnIPggzkH0ESVLikn2jZT+vxzCb7G8efj/1n1khyf6f6YMOkQ2zc8EnolV/wBx7N55tI3kYiz4D2Yfspz6plH0TFn7GOTxu2RdyLLWiC6lWyD4Pt0TehMdrfyub4DsOBGzTM5LI25YpC75T9qV18DzdiqjBWJ6tZd/5XsS88vNwAtkHYQayjyBJSryyb/bZ7/T+x4bsT6VxHbrTIu6zb8j+5hGa/M+KtOyz7KNlH7Kficlq2XdJvKJVnYcbLeb2/vFuoefWeX0axzhxEBH527oOCHj5lsR7vAaB/blN9hUHJJHXExkWNiD7IMxA9hEkSWmL7JtX48l7ubvo2iO68Eiyf2TWk9ZG2bmjIfv7l1J5z8jGavbZr+glDUOffch+ipPNsh/pOmMO8xNtY3rtb+PVeq+UfZ/WeJ6eH5v/68uB7CcTyH6sFNKY9tpn89LbinFzaOFL2rj2vehzxTiQuUD2ESRJiV32cZ19yD5kP15Y4A82HLRJvUr2eZq4W/ZFi70k06IF3lv2rWmEVPN4ubWfn7vnFQcIloTr81iCzusX5wnI62mj7KMbjxLIfqwYsp93L42pcYyr6UWd2t+rAdnPNiD7CJKkQPYh+5D94GR/cUU1TRm1gErnV4m75Tplv35fvRjHl+jkaVXL8EPIuPm5e52gKw4CzL+NKdv6+CJp/kjrvCzl/Dgyb74s6ELsnd2D2ij7jO11OsaFlDDLfsO2mVRbMUY5zg3L/r3U9yVN6ocW2sZ9PlQbPpSFH7KfbUD2ESRJgexD9iH7wck+c/r0aapZtoKmjJ5H84rLaP5MHX7Mw3gcT6OaNzicIt4WZLEHQRBW2T+4fRa98LtH6c4771SOd6PL/piat6mvTeq153mP0cLpj9m78XBrv/V5auOtXwYkzOlt0+ZR3+nmshn7fJFxxnqt6XT4wMN5MAK8gewjSJIC2YfsQ/aDlX2Ty5cv04b1G2n6hwto2oQSWl1bR5cuXVJOGzxJkH1uiZf684PkE0bZl0U/ftnX++db0q1JvpBrWfZFtx5J/Hmc1dffIelC9OWuQTze+Vyf3rZeyH5SgOwjSJIC2YfsQ/ZTI/uZRSKyr3ffiXQJAkERNtl3in5bZF8IupB3aZgs+/zY8XlGWv0dkm47ENCxCbt04OCWfXkd+jIh+/EB2UeQJAWyD9mH7IdR9kE2ECbZV4l+m2TffDzdlH5tmFP2Pa7aE6/sy4/9WvbN6SD78QHZR5AkBbIP2YfsQ/ZBZhIm2eeTcZ2i/4uf3auc1o0s+7pc8+ckd+ex98GPTGvHIfu+3Xjs00L2kw9kH0GSlERk/4uVfGMtyD5kH7IPQBCESfYTwy77Qratrjkasuybz6XPMyLgDtlXTKsLPa8vMsw9npcjD9eXCdmPD8g+giQpbZX9xq9K6bbb/pMm/FMh+5D9qDvjTA1kH2QykP1MhWXfcVCgwTIfad0HiQLZR5AkJRHZ543uxz++Swi/Wvan0wcdpY2058g2yf6O/9A39oHz2yD7pS9QXr/JKZT9OfRqlwLaB9nPiqRD9rds2SpQjQNABrKfqUD2UwFkH0GSlFhl/4sVk3U+Y6bQJu3xbbfdRrdu3RLCv7m2yCH7BdRf2yj7z060ZX8eFT74DFXF1bI/kQZ1epO+TEvLviz787THI2kfZD9jk0rZ55tqTR49n0YNLhHwYx6mmhYABrIPwgxkH0GSlFhl/x/+x38z+Hv6RwOWfc6hQ4fon/7x/7HJ/pYR91NezwJlN57yntKG22u0LvtrX6POvf6dJhi/BHQeOU/IflVvc9qfU+H61VTVR3q+QZf9naN/YQzLo0ELy+jDTuY0v6QPS9+mLkbL/pJ+5nCNflN10d/8LnXt/x5N7KwP7/pBjSX71QPM6dvTxG2a6G8fRl0H9KBXeLrCYprUpQNN2mHI/o4R1HXQbEn262hyF3P+jjR5VwN9Oth8/iBN+UqT/d2j6eFX+tJrYlhfWnG+1HicR/9eDdlPRVIh+01NTVQ8ZSEV9CuluZ+U0e7du2nPnr20YE4FjRpYSkUflIhtSDUvCDeQfRBmIPsIkqTEKvvqPvu3CUn5n//Aom/vxsOy33nEdLfsz/k37SBglNWyX9ErjwbMM2Q/76c0YS237I+jAXnPUKWzZX/+76jLqAVGy34hDexTSKcW/J7y+nzo3bL/uSH7ojvPx1bL/jJN/AcvMmQ/719p4hZu1Z+mifxLtIxlv/wl6jp+udGqP4NeGTBDl/28HlRttuxXvaxJf62Q/b2FPWnSTp+W/SW96eEP1xkt+yX02uASXfY1yV/OLfvVfbWdWD9N+Jvo8t5x9PCriyD7KUjQsl+2cDEV9FlExVNLaeeOnVRfv98GD5upjeNpyhYsVi4jJTQUUTfp75dfq5jGoq3X6Of5oi0byED2QZiB7CNIkpKI7PNGx6KvOkHXS/a3FjxAA+ZI3Xjm/JY6j5xltOyPMbrxzKUJHd2yv2OUY6N/8P9Q1ehf0KAFPt14DNnfNfaXNLhU6saz6EXqOm6p0bI/zejCU00TO+uyv3t8e/u6Og+jPaJlv1jqxjNTk/nhtPfULO3/EbTXpxvPvg8ftC+v6yiqFy37C/VuPHvGaI9LjW48i+jfu46jryH7gSdo2f94dAkV9CyjaR8soHVr17tkn4fxOJ5myuj5ymUkm9p8u3A3FHXT/mZ2ea8t8rszbhLuvgtiArIPwkzKZf/48eO0a9cuEEK4T20uJxHZN0VfeTWeVYOos7ZRuvrs+7XsR5F9e8u+0Wc/GS37Ctm3t+wbffZdsr+P9ha+TJMKe1LXwlX+ffZtLftGn33IftoTtOxPer+EvvnmW5o7o4wK+i+iyQXz6bPltYLJI7UDAW0Yj+NpeFrVMpKNXfbbIu6Q/VQB2QdhJiWy39jYSGPGjKHu3bvT888/T0OGDAEhZNCgQfTQQw9Rfn4+1dXVGdWRO2mr7Aui3VTLEH5rIzWuxiP32Ret+laf/Siyf1Dus5+niX+p6LMvDxu0UL8az5K+/Ny7z37XcUukPvsK2bf12demH79CKfsXdgynrnk9qdrjajw1g3h+Z5/9PHr4ow2Q/QxIKmT/xIkTgubmZlpSWU1jhyyg0YMXUum8Su17pska3ybZr82PfO75RVTUrRsVNRjjbF1zdDln0bem71ZEDTx/fq17uYIGbXnS9NZ0Dtn37AKkT1ckfjng1+U3nzncvs6wd/mB7IMwE7jsl5SUUJ8+fWjVymV08sg+Oqt98bNo6NRprNE5xKwVnPpuncZ6HaOFUWej4MxhvjKIiX6FkDOagJxp2kxnmnW4xVFnq8Y2apGuFnL2KGNeLcREl5Jzx3ZpfEXnjuvYrxyyl84LMTHkRFBPF09qYnLKhK8NrsmJQL9coLhk4JkDGg0GB+lSSwS9dfI7HU1WTC6fa9RhaTnfrHOBOaJjyEuE4wJLYjxEJkKLxlm6ZgqNITWtQmp0obmuCY3JjWua1DAsNoLLmuCYXKEbhuDc1ATH5NYNlhxddG5q3LhxnfbX19Pw4cPpzTffpJaWFqNSsj+Byn4YrrNf9TLlDZwlXY0H19lX7YwzNamUfRMWfsY5PG7ZF7Isyb0Qf+M5j2OZN6eVpF5u2ecuPN2KGvRpfGEJN9clSbvzNYhx8nR50vId86len+/BR/jIFdm/eK6ZLp07AkBcBCb73F1n8ODBNG3aNDrVvFOTm1LITjTZYVh0QiI727Ztox49etDWrVuNqsnuQPbbWv8raZK42s7Leqs+ZN93Z5ypyWrZd4mxJORC/O1/E9GSr01n68YTTa4dy9Hnk6RdMX/kAEKaTuCYT1qugF+f0dof2wFI7pMrsq96bwBEIzDZZ9Hfuf0LIR6QHci+l+xcunRJdO85cOCAUTnZG8g+6h+yn52yL06s9ZN9D4m3yb6Qa1nIJXgZUut7ZL4kyb7PQYZ+0rD0OkMKZD9+cNO63CEQ2eeuO9P/PE2ICGQHshNNdg4fPkxPPPEEtba2GhWUnYHso/4h+8HK/sGGgzapV8k+TxN3y75T1EVruSH7ru41EWyybzyXpV4cNOQXUa3tYIJFXSH7rvXwOPO5j+z7vD6LKAcEYQCyHzu4aV3ukXTZ55NxuY/+qabtkJ2Qyk7rtSt05coV7fmVmGTnh1u3aPbs2XTPPffQo48+alRS9gWyj/qH7AcnI4srqmnKqAVUOr9KiIdT9uv31YtxfIlOnla1DD/MFnCB8wRdIf+Rv4nVNcYcLgm+bTk2WTeH5VO+qmVfsZ7IgYSP7CvmE6/PNkyeN5xA9qODm9blLkmX/ffee482bVilyw1kJ3Syc731Cp08eZLq6+vp8mU+cVcTnhhkh4vx6aefpttvv53atWtnVFN2BbKP+ofsBysjp0+fppplK2jK6Hk0r7iM5s/U4cc8jMfxNKp548Mp1yDbgez7kyk3rRO/jpl/H9uvZG3HXGYyzl8RB/NJel2pJKmyz90w+PKap4/shuyEUHauXf2ezp49S5MmTRIn3tbU1NC1a/rVeaLJzg8avCO74447RAHeddddRlVlTyD7kH3Ifmq6GXBDwob1G2n6hwto2oQSWl1bJ87/UU3bFrL1Cx14A9n3J/03rdN//bIJeUMRFSV6romzi1688Pw5sC9IquzzSZbchee0JgWQnXDJDos+d92ZMGGCEP13331XHPgtXryYrl7lLj0sPP6yU1paKrrymEXYv39/MTxbAtmH7EP2UyP7yUcXjcjnjlb9XAOy7w+f55LOm9bxAXYyWt5dJCrrkH13+BKKb7zxhiYky4KRndWD9RsLiRsKQXYyRXZar+kt+iz63BVn+XLt8z9xgqZOnUrPPvuseM6tbjdv+MvO6pVu2cmmQPYh+5D9bJV9kOtA9v1hgTdPcg/kpnW+yPee8Mari49+oFCrLcMxTrTqm/NEli8vRz7AcA23za+fQ+M8KIn7NSnmM5enz1MUaXiwzcMNEtE/Iy+SKvtxy07xE44Vd6dFkP2skp3Wq5dEH32z6w6L/Zw5c2jgwIG0adMmKi4upt69e4vh3PLPN9aKR3ayqXUfsg/Zh+xD9kFmAtn3R5Z9E9XVrpjky370c2SEHEtXlGIxNp+Lx5YI84GDdHK7o2WelxM58T1ykCEvz4Zjfl3IdTlv62vyfQ3W5+A4AOIT7lWvL0bSJvulPfQVdXr/44jsrJxKmyH7WSU7LPB8Mu4777xDGzduFHLfs2dPGjJkiGjVr66uppkzZ4o75vK0rdeuxiU7d999txiXDYHsQ/Yh+5B9kJlA9v0JVvZ12RWfuSTDKuG1z2eiGh85QJAFnLE9t8m69Dok8mt91u8p+219TV6vwf992A8Q4ic9sj/jcX1FPYZ6yM5w6m97QU9RmUv2P6HxHY3xvUbpsjPnt9I8eTRgHmQnFbLDJ8txNx2+W/Ljjz9OS5cuFc+5Fp555hlav369eM6yH6/sZNOVeSD7kH3IfmplHzf9AbEC2fcnUNmvzbeklQVW/+ztLfkss7Lo2kmm7Kuk3qeLTCCyr16Xcx6xPLFu83/79PGQFtnfNOw+sZJO70/2kJ2ptLnWlJ0CXfx7FpAs+1sLHhDL6FxQrMtO3atiXOeRs4TsVPbiN/I0VUJ2ApWd65rocH/9WbNm0XPPPUcVFRV0VZN6PinXPGGXT9rmQuPnt27mvuxA9iH7kP1gwU1/QLxA9v1hgQ/spnWxwFKt/T1srdfaQYL5PFqXGbVYa88dsu5cjonXcG/Zb/tr8lqXcx6mNl87MCiKHCxFhkcOjpyPVb8AZKjsV9Dm4ffbX1SHQbTFlH0T0cKvy862kbr82/kpTVgL2QlSdsxuPK+//rrosiOuvNOqy05r61XRn/+jjz6iYcOGtakbD5MtgexD9iH7wco+bvoD2gpk35+gb1oXG9wyLv19bELs6P7iIeCu5w5Zdy3H+oXBPjyyvMhwd1ebNr4mj9fgnEcgbo5n/xWEyQrZj9aNxxT9TsOLIi37suz3fIoG8P95/0blDtkfMA+yk9KWfY3z58+LL2FxnetWu+zwJTf5Jjc8Xm/ZN4UHsg/Zh+xD9mMnU2764w1/gXt0BQgced26MKm+8MMMZD86qbtpHYiZBE/MNUmP7O+eRGPb6yvqVyzJjnGC7qKXedz9NI678qwapAu+TfZH0rE5T+kvtucoXXbM/vq9RluyUzlvDGQnBbLTeu2S6LpzQ4iOW3aut14VLf5hkR3IPmQfsp980n/THzf2VrRMkf3E8WodzGYg+7ET9E3rQKzovwAkY1tMk+zrsmNekSeCcenN2gHUyRzW4X617GuyU97TmKbjq7RNk51tI38qLUujN2QfspO6mPV/9NBWOtKwiY5afEFHD5psjnBoCx2z2Brhu20S2+m4yeEdDnbqNO6kE41fSuzSaWK+sjjZtFunmdkjsVfnyF46dWSfRL3OUWa/xemjX+scY74x+NbizPEDEg0RThx0cEjQcpL5zs6pwxKNFmdPN0k0RzhzxOLcmaMRWo4ZHLc433KCzp81OSlxis6f07lw7rTEGbpwXqZFcJG5wJyVOKdzkTlPlywu6Fy6KHFJ8D3z/fdUt+pTyIgP3E84nTf9UQHZzx4g+yCrEN135O5EiZFW2UfLJmQ/F2X/ZJMm34e3ABAX69atg4z4wAJvniQYyE1/jC9XQX6RXZ6Nkwf18Xr/WRZia3rRV1cWbuOqHNIybfLsuS59vqKibto4Y5hi3bEsw5pOOb/361O/r8iwbD0IgOyDMAPZh+xD9pMUe/3PASAuICP+yLJvorpaCBO37AshluReSLAk2/IJfjzO6EPr3bKv95u3+tryPOYy/NZlzGe15nmtO+oyDKn3fO0+r0/D9r6seYznWQq2LxBmIPuQfch+kgLZB4kAGfEnUNl3Ca0k7kKk7X8TU4z9ZV9qXZef+63LOZ/XumNdhudr93l9Grb3JQ4sktedIF1g+wJhBrIP2YfsJymQfZAIkBF/gpR9vuSdr+x7tGy3RfZ91+Wcz2PdMS/D87V7vz5+bn9fOmKdWj06h2cL2L5AmIHsQ/Yh+0kKZB8kAmTEHxb4wG76I1qvHZItd+ORu8xItKll329dzvm81h3rMjxfu8/r01DJvsDz4CHzwfYVP7hDde4A2YfsQ/aTFMg+SATIiD9B3/THbLkWOE/QFTId+ZtYXVrM4aJrTIyyr+G9Lud8Gh7rjnkZyvn9X5/tfdnmd7y2LALbV+zgDtW5B2Qfsg/ZT1Ig+yARICPRSd1NfxTSHRipXFd4wfYVnfTfoVo+YPYb5zcdUAHZh+xD9pOU1Ml+IY0xbkrnpNPQQsX0IBuAjMRO0Df9Ea3mxkm4qvHJJJXrCjPYvvzJjDtUt032PbudAYs0yf5Q6te+L20Ssv8xjeugScrwqZB9yD5kPyZY9u+lMTX24Z8PvReyn8VARtIJt67Ln3uQLe2pXBcwwfblT2bcoRqyHxRpl/1FPfKoXzFa9iH74Zb9hm0zqbZijHKcG8h+LgIZASA4sH35wye1B3eHapZz6XOXT/KWzwnxO1fGNi4i+yz61jTmL2TixHRzuHkwbXSXs5bJw6XXleO/rqVV9kvfv08Xfbkbz8oB1Ml4EZ2GF2myX0D9rRf2FJUZsr+14AHrxQ6Yo8v+tpE/jQybB9mH7Kc2bZX9g9tn0Qu/e5TuvPNO5Xg3Mcp+TS9rW2L6Tpent3cFMsfxMsxheXnudYDggIwAEBzYvvxhgTevaBXIHaotpFZ559WihIjHMM6vZZ/nk8Wd5xMHF8YvasaBhn6Cu7y83P51IH2yzyvqMdTdZ7+4u+jSc2Tmk4bsR1r2t2iC33+2Jvuzn6K8niPtLftzfkt5vUajZR+yn7a0RfZl0U+q7AvRl6d5m/q6nj9GC7XHC18yZT8yzGsdIDggIwAEB7Yvf2TZN1Fd2pZpk+zLrfQaQqwtETenkyTeb5yf7DvWIxDy7zgR3rH8XO8KlD7ZN1r283oMs8n+5uH3U/+ZFZLs/5k+6BB5YZ0LPhGt+gPm2LvxbBvJw1j0IfuQ/fQkXtl3in5SZX/6Y5T30tve4/lgoH0v+lx7DNnPDCAjAAQHti9/ApV9Fmuptd0Ua9G67iH0fuOiyr5tPhPIftpk3+yz3+n9jw3Zn0rjOnSnRdxn35D9zSM0+Z8Vadln2UfLPmQ/ExOP7KtEP6WyL42PyL4x3PrsIfupBDISP7jpD4gVbF/+BCn7dnHXu9MIsRZddRwCbuvG4zHOT/ad3X8sIPtplX3zajx5L3cXXXtEFx5J9o/MetJ6UZ07GrK/fymV94y8WLPPfkUvaRj67EP2U5x4ZJ9PxnWK/i9+dq9yWjeJd+ORBV9+HFkGWvZTDWQkdnDTHxAv2L78YYEP7A7VhuDrn3k+5UtirfedN8Y5TtD1HmeXff1AQJvG/PXAfG6gvJEcZF/gTJJlH9fZh+yjG0/biUH2GVsrvSn0PK/2XGr1t2RfTI9uPOkCMhKd9N/0B2Qr2L78CfoO1SC9QPYh+5D9JCV1sg9yEciIP5lx0x8/uLVR+5u5+gs7WhRBWsD2FZ3U3aEapBrIPmQfsp+kQPZBIkBG/MmMm/7Ysf/0b8i+9jezdweA7GcC2L5iJ+g7VIPUA9mH7EP2kxTIPkgEyIg/3E84uJv+tA237HejolrHdb4h+xkBti8QZiD7kH3IfpIC2QeJABnxhwXePEkwkJv+yCf1Oe/kKa7wYf5NdHFn0bemF3IfOWmQx+knBfL8suxHWv/19chXKNGmsV4DTy9NKx88KF6LvgzgB7YvEGYg+5B9yH6SAtkHiQAZ8UeWfRPV1UKYuGXfebk+Id3Gcx4ny7Z0FQ9ly75YBsu7/Fgl5c7ptb+3sVz9KiTmOF36xXp8XgvwB9sXCDOQfcg+ZD9JgeyDRICM+BOo7LukWRJxq7VdwhBub9k35hPLdMi+Y3n6/IpppNdjrcfntZjTAjXYvkCYyRjZ/2Il31gLsg/Zh+yDcAIZ8SdI2fe9W6dDvGV8Zd9qkZdEnpclyXlk/jhk3+O1AH+wfcUPblqXO2SE7Dd+VUq33fafNOGfCtmH7EctxkwNZB8kAmTEHxb4wG76I7rxOFvfDXF3dvGR8Jd9DdHtppu1bM87icYq+z6vBfiD7St2cNO63CNjZJ9X+uMf3yWE3y37BdRfenHiLrpesr/2Nerca0zcsl/V5xdUuNGU/UVU2En+QJ6nJUmQ/eoB7WniNsh+rsv+xXPNdOncEQDiAjLiT9A3/fG7k6cu/5G/iXXyrTlctNYrZN9arinyuuDry5HvJBqj7JvjrGXIJwIDP7B9RQc3rctd0iL7X6yYrPMZM4U2aY9vu+02unXrlhD+zbVFbtnvMIi2iJb9kTQg7ykqD0z2P6RB2gfQZcyipLfsQ/bDIfuqDQ2AaEBGopO6m/445BtkPdi+/EntTevkA2P5F654ScZ2qne3cx80y8uWH6sP6jOdtMj+P/yP/2bw9/SPBiz7HD5q/Kd//H+8ZX/1YOrccTBtFbLP4m++6N9ShUP2K3trw3uPE7IvHovpfk6F63XZr+pjDvs9DTRkf+foX1Ben488u/Es6WfOo9HvY0v2l/WXhvefZsn+sgHm8D/SK5B9yH4AlGuCc9+7n9LYmZXK8SA7gIzETtA3/RGt8TjxNafA9uVPam9alyxhToLsc9e4/HzFcmKTfXtXvswlLbKv7rN/mxD9//kPLPrxd+PZNvIBGjAnIvuVvfJowDyjZX/eM9T5P+YZLfvjNbEfTyfn/06T+kKjZb+QBuZFZL/LaG7V12T/8zepi1jnL+jDzzXZL31BE/zJVss+i//gRZrsL3pRE/ypVss+i/8rZZrsl71EeQOmGy37n9AreZB9yH7y+PyLzfSr95ZRuyGr6bWJ5dr/dTRqRoVyWpD5QEbSCX+Zy597ggIBMg5sX/7weS6pu2ld5sg+H9izrLulHbLvmURkn1fKoq8+QVfuxrOEynuawj+DxneMvOjOI2fpsi8ez7a68Wwf+VNrGsGD+VQ16uc0cL67G4+qZX9JX132vxzzSxpUKnXjWfQCdRm3hL4a96+a9EvdeDTJ7/pBNe3+oD29Uo5uPJD95MIHxX8cX0V/8do6em5sFW3esk20vCyvraO/fb2ORkyH8GcjkBEAggPblz8s8OZJ7qm9aZ1TpCN/G12ijfG2+eWT3NXz6tPow2QZt58kz+ON+R3nycQi+yz61vrMXwLFSfTmcMf81nvg4dLrtX5FtL+HZB5EZIzsm6Ifj+xvLeDW/EjLviX7vcYIwdeF39myb/TZ92jZN/vsD1roln207EP2/RL0zrilpYXemlJOf5W/hn5TsIRWK35qrflstSb8a1Lcws87slh2TPIOEziBjAAQHNi+/JFl30R1tSsmbtl3XkVKSK9C9l3CbY7X/lY2wXccCNimZyJCbl+mNJyf28Y5lyU/lx/bl2Fr2RdX35K6/1nL11+zuS79pH1zGbrgi2Uo339yyAjZF/jeVMvejSfP7LM/59+sYZ072mXf6rPfcQhtt/XZz6MuozTxP1hChQ+awyJ99vWr8XwkhN+cPq/vRGWf/S7jqpR99rlVX++zX0MTO5vD0Wcfst92ikuXULv81XT/0OVUsWyFS/JNypYupwfeq6F/fnu5cjnpxWvHrJMtP4cGBWQEgODA9uVPoLLvklhZmKXvBaNV3H6yrPt7g2VZn8Yxjtcj/W1dBwQOGXd+59ify8uWH/vIvmP9ArE+xeuUPg9rGcr3nxyyRPZxnX3IfuYnyJ3xPe98Sp2GLaM9e/cpJX9l3Vr6/ehKaj+0WrTu/0E7EFUtJ704dngOIPuQkXjBTX9ArGD78idI2bd3nWE8ZF+eXvvb6N8H6vEu2WeB9hB5np4fm//ry+F57bUgsF6nvF75cRTZV7bMO96Dl+wbz+3vPzlA9iH7kP0kJcid8QtjqqhfYQX1Lay0CT+fpJs/uYx+8tYq+mThEjp79ixduHCB3pgSXzce285GtC5Edky2HaTR8qD/bVQ7Qg25dUPVN1Maby6X12/NI/8MGiIgI7GDm/6AeMH25Q8LfFpuWuf8/pCnEULM4+XWbn7unlcIsk3UHd9p4rvI8RpcYq5etv2xj+yL9xkZZ1+u97qdsq+aJlEg+5B9yH6SEuTOmFvq+aQplv3e4ytp+46dNL64Ukj+2BkV4qTdixcvUl1dnXgddes2KJfjBe8ozZ2peKztzPSdj7Rj4x2ZZ39EY0fm3NnxNLadp/Y3NXdgPM7nJ9WwARmJDm76A9oKti9/0nfTOun7Q3xfmH8bu2gXSfNHvidkiTa+X4x5IzesY/h7zN49xuv7hoe7fjWwPbbLvvWaze8y23tQLcuYRiX7yvefHCD7kH3IfpIStOzzDpeFnx//Tf56en1yOe3VdspnzpyxWvS7dOlCHTp0ENOqluOJJfK8I9N2MtpOx9pJeezEBGKctCNz7MTsO0bHDs/xHLIPGfEjtTf9aQu6UET+dpIQuODaD3e9pxpsX9FJ3U3r4sH5vdEWHIIeQiD7kH3IfpIS5M74lY/KxNV3WOJXrVlHBdPLxWO+kdDXX39N1dXVNGLECBoyZAgNHTqU/vSnP9HSpUtp7969yuW5MXeG2o7VbK1nkbekX5vGJfImkZ2x/adUBrIfK5ARf1J705/YsNesQyjEr1yJSgpIFti+Yifom9bFh/N7ow3wd5fZaBVSIPuQfch+khLkzvhAQ4MQfhb9Nes3UOEsvaW/tbWVXnzxRXrkkUdo4sSJtHPnTiH4kydPpieffFIMVy1PBYt6Pt9J0JCX2ny9O49dXlStI9LO2Ck44tcAyH4sQEb84X7CqbvpT2z4yj5aEzMKbF/ZSiKyz9sg/53bOn/uANmH7EP2k5Sgd8Ys/Hyn3KKSxUL2d365i2rr1lF9fb3ovlNerm0/zc2Cmpoa+vWvf007duxQLkuJStSdrSFC3iN/G1V/xJj6Zgocz81lh7QFBjLiDws8H+Ayqb3pj4bYNsy/iV6zLPrW9KJm/WRfr3W93zEPc9S+Yvm+w0HcYPsCYQayD9mH7CcpqdgZs/AP+qhcXJknf1K5OBGXW/crKyvprbfe0oSnkQ4fPkwjR46kuXPnKpeRWpyCD7yAjPgjy76J6mohTNyyL6RaEnX5FykeJx+A8jijq5pvyz5PZ83H24HziiLmdsGPpflMfNYL4gfbFwgzkH3IPmQ/SUnVzrih4SCtXL3W1ody6tSp1KNHD9Ft56GHHqJ+/frRmDFjbPOlA9HKH9KW+niBjPgTqOy7RFoSdyH+9r+JWdNu2Zenkw9ynQe90nMvifdZr2taEBVsXyDMQPYh+5D9JCWdO+MZM2YIwd+6dSvt2rWLXn31VdGHXzVtsOgtmJG/H1r1YwUy4k+Qsu97YrlPi7p/n30Zb9l3r9vAZ70gfrB9xQ9uWpc7QPYh+5D9JCWdsg+yH8iIPyzwabnpj7OLj0QyZN9z+T7rBfGD7St2cNO63AOyD9mH7CcpkH2QCJARf9J30x8NR5ca2+VoeZjoXtNG2Wdsy/caLvf5B/GC7Ss6uGld7gLZh+xD9pMUyD5IBL6CEurfn9Td9Mcp5yDbgez7E/hN68QvVfyZ83bF25f8q1isyAfUfgfXwAlkH7IP2U9S7PU/B4C4gIzETtA3/cGJ5bkHti9/gr5pHXd5S/yXKW/Zt3epA04g+5B9yH6SAtkHiQAZSSd6S2Pkc0erfq6B7csfPs8lyJvWJUfGIfttBbIP2YfsJymQfZAIkBEAggPblz8s8OZJ7sm+aR2LuPWZiytMyd3kjMfS+Sk2aZfPW7GdSxORfdvyzV/krG5DjNe6eDgvxzFvDhKI7B89tJWONGyioxZf0NGDJpsjHNpCxyy2Rvhum8R2Om5yeIeDnTqNO+lE45cSu3SamK8sTjbt1mlm9kjs1Tmyl04d2SdRr3OU2W9x+ujXOseYbwy+tThz/IBEQ4QTBx0cErScZL6zc+qwRKPF2dNNEs0RzhyxOHfmaISWYwbHLc63nKDzZ01OSpyi8+d0Lpw7LXGGLpyXaRFcZC4wZyXO6VxkztMliws6ly5KXBJ8z3z/PdWt+hSyD0ILZASA4MD25Y8s+yaqq10xibfsO2Vf+1uYl5llEbcJe6T1Xhf/GFr2eT5Z3Hk+6yAjsi79pHx5ebn760Agsn+ySZPvw1sAiIt169ZB9kFogYwAEBzYvvxJr+ybjx3PLUk3x8mC7yP7Vsu9hJB/x7ocy7e/xtwiENmH7IC2kCs7Y9Q/aAuQEQCCA9uXP5ko+743u4sm+7b5TCD70eofsg8CB7IPwgxkJH5wh08QK9i+/GGBD+ymdRptkX29G49DzmPtxqO8IR1kP1r9Q/ZB4ED2Y6WQxrTXPpuX3laMm0MLX9LGte9FnyvGgcwFMhI7uMMniBdsX/4EfdO6Nsm+hvfN7uyyrx8IaNOYffXN5wb6ZT8h+/JnwjgD2QeBE2bZb9g2k2orxijHuTFkP+9eGlPjGFfTizq1v1cDsp9tQEaik9F3+LRd/SOaNDgFJ1Z4vtwVkiDB9hWd1N20DqQayD7IGMIq+we3z6IXfvco3Xnnncrxblj276W+L2lSP7TQNu7zodrwoSz8kP1sAzLiT+B3+IwDZwug3vpol/faIr/L+LVV9kFbwfYVO0HftA6kHsg+yBjCKPuy6Mcr+2Nq3qa+NqnXnuc9RgunP2bvxsOt/dbnqY23fhmQMKe3TZtHfaeby2bs80XGGeu1ptPhAw/nwQjwBjLiT9B3+IwH7y4JsQLZTzXYvkCYyVLZN6QDfZZzirDJvlP045d9vdYt6dYkX8i1LPuiW4+0LfA4a7txSLoQfblrEI93Ptent60Xsp8UICP+8EmBwd3hk/v/Rj5zS+RtXXN0OWfRN6cT/YMd/X7t2Jcbmc4h+55dgPTpiqzrgfvNZw73eC8hB9sXCDPZLfvos5xThEn2VaLfFtkX9S7kXRomyz4/dnyekQNhh6TbDgR0bMIuHTi4ZV9eh75MyH58QEb8YYE3rwiS7Dt8Ok/UE7BIK2/MY2/Z5y48+sl/xnSeyCcUStIuhF2+cgiPk6czTy5UzKd6fb4HH+EF2xcIMxkj+/GfoIg+y7lGmGSfa90p+r/42b3Kad1IYm8+nm5KvzbMKfsev4DFK/vyY7+WfXM6yH58QEb8kWXfRHVpQCZu2TdayG3SztLs+FuYV/qwdeOJJteO5ejzSdKumD9yACFNJ3DMJy1XwK9P9V4Ati8QajJC9tt6giL6LOcWYZL9xJBlX68zWz3K9S/qOTKtHUfduqbl8eZz+7SQ/eQDGfEnUNk3MC/zJ4TcR+Jtsi/kWhZyCV6G1PoemS9Jsu9zkGF7L4rxYQPbFwgzaZf9xE5QRJ/lXAKyHyt22Rf156xx53Pp84zUpKJuHdPqNa44OLaN5+XIw/Vlov7jAzLiTypkX2BKtKt7TQSb7BvPZakXXXbyi6iWhdsSchZ1hey71sPjFN19rHFe8ymIckAQJrB9xQ9uWpc7pFX2k3GCohB0Ie/SMFl2HPIisETIITs8rU83BvnAAX2Wkw9kP1PhbUt9MBvZBkCiQEb8YYEP7A6fLMXWZy7JtW241DXGHC4JvtmSrmPvc68Py6d8Vcu+Yj2RAwkf2VfMJ16f13sJOdi+Ygc3rcs90ib7STtB0XyMPstZD2Q/U4HspwLIiD9B3+ET5DbYvqKT0TetAwmRNtlP3gmKunTwi7bEQ5Z9V9ccGYfs+3bjsU8L2U8+kH0QZiAj0cEdPkFbwfblT7A3rXP+QpUo8pWtHJe31QjuPBWvdem/4Cl/tcsQ0ib7iWGXfSHbVtccDVn2zefSm4sIuEP2FdPqQs/riwxzj+flyMP1ZUL24wOyD8IMZCR2cIdPEC/YvvwJ9qZ1Qct+lHNXkkYs64LsZzHoxpAKIPsgzEBGAAgObF/+8Hkuwd20DrKfbiD7MQHZTwWQfRBmICMABAe2L39Y4M2T3JN+0zqnABv3gjD/BpFuNyzT0t9HvpKUfOJ5flEMsq+vM3L3aW2Y53qN12etg1+r9FqsE/H916W/P7/3Kg1PMZB9kDFA9kGYgYwAEBzYvvyRZd9EdbUrJiHZ973UrIwk1s55hJSbzx0HCNZwXq50BS3f9erTmgcX+pW17MvXDwz81qWQfV6nfEleft1puhQuZB9kDLmyM245soPONG0FIC4gIwAEB7Yvf1Im+wrhjdxEzhgv/X2EZLvmkVvY5ccysoBr+K7Xf9rIfTViWZfjvUrvRWC7H0fqgOyDjAE7YxBmUP/xg5v+gFjB9uVPRsg+j5Nk2JRs0dKerbLvWGe6gOyDjAE74/iB7OQOqP/YwU1/QLxg+/KHBT6wm9bJAuzTncYu9TzckGwxj0PGbd1sYpD9qN14HMtPhuy71pk+IPsgY8DOOHYgO7kH6j86uOkPaCvYvvwJ9qZ1CpmW/ga6SJvTmcPlO04bBwLmuDhO0LXWyfiuNwDZZxzrtLorpRjIPsgYsDOODmQnd0H9+xPsTX8SwUsAUoG8bl2UIgIDZLB9RQc3rctdApH9i+ea6dK5IwDEBXbG/gQrOywN8ufuaBFRomg5iQuFJImfPeXXkWyJSqeY+YP69yfYm/7ER6Slj8kU2U8c+/vKLbB9xQ5uWpd7BCL7qhUBEA3sjP0JVnbs0uA+IUpFkmVf/NzpWJ42LLnyAdkPKkHXP/cTDu6mP/EB2c8+sH2BMJP1so8TFHMH7Iz9CVZ2HNLALexRLxGWTNnnZaVCmCD7QSUV9W+eJJj8m/5wXUQ+c0t4bb806bXOQmxOp185xFnH2nRSP12bPMv9d239jvX5vG8AJG1nUZZhTaec3/v1qd9XZFi2HwRg+wJhJmtlHyco5h7YGfsTvOxEJDhySTJznPQ3sV0tQZYIaVy8osLDo/2SYFumQz78xnnKUWaB+vdHrn8T+QRCmbjrX1V/XFPyAa80jXfLvmM74HnMZYgalWpP1KV9Pmub81p31GUY25rna/d5fRq292XNYzzPcrB9gTCTdbKPExRzF+yM/QlUdpxCLwu6azqnXOjzWpLQBlGxH1zYr7wghjvnFes2nsczTlqnua5MAfXvT6D1L+rEcaUMUSv2v4Upxv6yL2870nOXPPvM57XuWJfh+dp9Xp+G7X2pPpMsBtsXCDNZJfspuRqDsYMzP4jIDl2Fc8cJEgE7Y3+Cl31JgsV24C0f+nbB9a9Juiz6imkF0UTFNU7HOghQjG/bOMf7zCBQ//4EW/865kGmqGePmmTaIvti2Z616JjPZ3uIaRmer9379fFz+/vSsX0m0vBsA9tX/KCbdO6QVbIf9NUY9J2avCPUdn5FUgulC+eOEyQCdsb+pFT2xXNJeqSW+ogQcP3rsm8Ti7aIivPgwoDnSUT2fdcpTZ8JoP794ZoO7qY/EmY9iZpU10qbWvaVB9Ae83mtO9ZleL52n9enoZJ9gWIbyzawfcUOuknnHlkl+7wDD+4ERedOMBbaMg/wAjtjf4KVHYcES1JhF2aueVn29WlYEoR4W/PGKyrGeqSDCnOYWK5rmbxu43nUcd7rzCRQ//4EetMfURfmZ+6sl8jfwqpxc7io1xhlX0PUuLk8v5NrGY91x7wM5fz+r8/2vmzzO15bFoLtKzroJp27ZJ3sm0KT9BMUecfm2XLBO3PpA7KJj7kT5MfSOCEZ5jzZv6NMBdgZ+xPsHQ4dNe6SZ3O4fFdDuf6N+U1Zj1tUdGzjGVn+Hcu0tUD6jIu2zkwB9R+d3Lrpj0O0QaBg+/Inc29aFzSOhq4cJWtl30SWHZl4ZZ+FwGq18UXViqOLjiUYLPpOScnyn0BTAXbG0cEdDnMX1H/s5MJNf8RBqPw9AQIF25c/mXTTutRil33PrmxZDmTfJJqQK1sOWfa1gwRZ9BXTCrBTjwp2xrGDOxzmHqj/XEf+hYxBq34qwfblDztTcN2kMxnIvpzcl31n314ZlndJ1iPFEJF924ECWvLbBHbGIMyg/gEIDmxf/sh+lfz7uOi9IKLfNM7oLWE1mEZ6TojncqOpbX7TyRy9LDRsvTaU64zIPruduTxrXYm+zgwh62Q/yKsxiD+07Y+k/fHyi6iWC9SSd711JiL7+h+f57UXVORIEcQGdsYgzKD+AQgObF/+yLJvkrTGVMObbI4ku5bVQKpPZ/qWfr6V6VKSyLsci+czntsaWyMi771OaRptuK1lP9HXac6XAWSV7Ad7gqKO/kczPwjzj2f8YQWJnaAIvMHOGIQZ1D8AwYHty5/gZd90JQ2HHwmEOymms8RdEnHHcCbSgi8tg2XdnM5znT6yn+jrNMdnAFkl+wxOUMxdsDMGYQb1D0BwYPvyJ+Wy75D1WKaLTfYj07nEXbnOKLKfyOs0x2cAWSf7JjhBMffAzhiEGdR//OAOnyBWsH35wwIfXDdphxy7uuGYxCjRft14+Llo0c+nfLkLjuc6o3TjSeR1muMzgKyVfZB7YGccP5Cd3AH1Hzu4wyeIF2xf/gTbTdohxwwLsvR3cHXBMafxkmjH/Ha51rtVu7pPK9dpl31rGt8u2ZB9yD5oM9gZxw5kJ/dA/UcnM+/wqYuF/GWvoxAckDawfUUH3aRzF8g+yBiwM44Obmeeu6D+/cmkO3zaW+4M2df+VvbWPMh+JoHtK3bQTTr3gOyDjAE7Y38y/Xbm7p8udQmyDRN9IP0EiAUplp9Ac0+kUP/+ZNIdPt2y342KarXalvsIQ/YzCmxfIMxA9kHGgJ2xP5l4O3NXH0q5K4MQe0e/Sec0bcZfpDKxz2Q0UP/+8EmBwd3hM9I6z1i1Y9SwPlyvN64tczrnpft4XKTe5Rq1Lz+yDRjTWP2CeXppWtcJhsZwn9oHarB9gTCT9bKPExRzB+yM/QlWdtqGTapZRiQ5EZdCy8+3DUuehEP2My2pqH/ziiBJv8On6iDUUc/yNPb6isi+XpfyY1WNOqfX/s7Gcj1vzuPzWkBsYPsCYSZrZR8nKOYe2Bn7E6jsMFbrokZ+kSQkGnG2cPI8tfn8WB5mH69uqXQIkudrMqaTxpvy5X5dxrIyHNS/P3L9m8hXC5GJu/6NWnT9CuX4W5j15C37xnxCxH1qWUOfXzGNJPHWenxeizkt8AfbFwgzWSf7qTtBUd6B660vkZ17PDh25nHh+BLxwxKntq4r/WBn7E/wsuMQFvM5j/NoVbRLj/7ceWkyaxp5OZ7LlLYXv9dkbJOWGPE4aXnO15UNoP79CbT+Dcw7qFuCLYm3jL2+nPtpfs7jpVr2rE/H94NjndZ0Pq8FxAa2LxBmskr2U3uCYhyi7YtjZx4Xsb8G/lKwtUplIdgZ+xOo7LhkQqo9Huf4m6hbOI1peTks6ubyzGHyOjyX6RAkr9fk2q7sz12vKwtA/fuTCtkXyDUsH2xK2OtLsZ8WB7PdtPn1mhQHEVYtc63GKfs+rwXEBrav+EE36dwhq2Q/tScoZp/sZ5vcOMHO2J8gZccuI4xD9m3jIrjrTq/3Iu6vbx58CvEpoiJ5Ws9lRrYX39fk2q7szyH7qU8q6j+wO3xyPVqfuUO+pb+FVdPmcHGAqt5P678SmMvi+owsP9+qT0cdO7YLWx17vRYQE9i+YgfdpHOPrJJ93oEHeoKivDNV9Q8W0/GOPfJB2XbYtvnNHbb3vPo0+jBZTCKSo5AbaR3mPPyFYF+mNly0BEWGy8vPVLAz9idQ2RH14pAOuRtPTC2cjF6z3KoZmV4xzHOZ0vbi95ps25X7OWQ/9Qm6/oO9wyfIdbB9RQf3ccldsk72TaFJ+gmKTvnwEgseLrW86PB47YOzCb4pG04pMZFE3rZMWfCdsi+tg+dR9gHVcIkUzys/z0ywM/YnaNnRWyKNz915gq7YHiJ/E3ULp7Qc6TkjDkgdw9TLtG8v3q/JuV05niteV6aD+o8O7vAJ2gq2L38y/T4uatiR7H9PnWi+454v4mvR3C07yVrZN5FlRyZu2Wc5sEm8U7SNP7oQaedPqO6iYElRyYtTcFxFxcu3BMXjNQjsz22y73ov8uuJDMs0sDOOTupkx13T6ScTX1PyQP3HDu7wCeIF25c/mXgfl7hQeI83slt5kVvfN5B9A9GCGIvsy9NrH5TXEaBS9rkYpZZGWdB5en5s/q8vB7KvKsZMTS7JjqjvDGsVz8TXlExQ/wAEB7Yvf9iZMu0+LnEB2fcFsm8SV/9gaRpRXDxebu3n5+55haxYxajPYwk6r190U5DX00bZRzeetCS7ZUevx8jnrqj3lJOJryk4UP8ABAe2L39kv0r+fVzYZSKfue4q9mG6G+nDIg2ejoZKo2eFPo/j+0Al+7bp5eV6yb7sVXbH8l13FpB1sh/YCYoaQsbND8Grf7A4CDA/KHtR8BVIzHGRonIWT2TeyBUZGL3I7a3vckE6Cs/x3Cb7jO11OsZlKNgZgzCD+gcgOLB9+SPLvknSGlNVIm5Dch3btNJwlm35l13nMp3PfRs9dd+K1IHKs6TH0dadBWSV7Gfu1RicIt4WZLEPJ9gZgzCD+gcgOLB9+ROo7But4q6uxCzN0t9Cb5R0SLYp1Y5pBfHIv0bkVwIv3/KQ/WjrzgKySvaZzLwaQxJkn4sph/sjxwJ2xiDMoP7jBzf9AbGC7cufQGXfwOw9IaTe4Txy7wTzcbRzEW04xyumT0j2/dadBWSd7Jtk1tUYEpF98+ekBA8WcgDsjOMHspM7oP5jBzf9AfGC7csfFvggu0lbGOIsxN8SaHYoSexFi34+5csNoK5uOQ6cQu6antdhPo9T9qOtOwvIWtkHuQd2xrED2ck9UP/RwU1/QFvB9uVPoN2kWcStz1yW6ciw6OcwatiW4xivan13TG9ffhyyz/itOwuA7IOMATvj6EB2chfUvz+Ze9Mf89dZE78WQF1wItIBUgW2r+hkZjdpkAySKvsbN26kd999l1pbW5UrA8CP1atXY2fsQ6bKjutKUIb82IaJn0GlVhIXsUqQo7Ulh4CM+JNJN/2x17yjlTBqrYN0gO0rdnDTutwjqbLPP/0MGjRIuSIAolFVVUX/8i//ErUYMzWhlR3nz6dCdmL4ibVN+Mu++8Aje4CM+MP9hDPlpj++su/ZRQCkE2xfIMwkVfb5yK979+7KFQEQjUmTJtH//J//M2oxZmpCKzss99KJVOKKB/n5tmHJk3DIfqYmFfVvniSYmpv+aBgHrvpwve64xszp9KuJ+Mm+Xq/6PVh4mKN+Fcv3HQ7aDLYvEGaSKvucwYMH01dffaVcGQB+9OjRg/76r/86ajFmaiA7+jy1+fxYHuaQIaXIOCRIPhlKdYM7abz5Wt2vy1hWlgAZ8UeufxP5BEKZuOtf9csT16lcR9I09oNKR33zdNZ8XK/yr1xynfNjaT4Tn/WCtpPt21ddXR0NHz5cvJcbN24AEBfr169PruzLBQlArGzatIk6derkKsR27doZlZX5Ca/s6M91oYnIjDWNvBzPZUoSxNPIEsTTWM91ebJeK4+Tlud8XdkEZN+fQOtf1Jyi65njb2HWmlv25emkg1ab3DueS9uTDZ/1uqYFMZPt29euXbtoyJAhyvcGQDRqamqSK/ucESNGUG2tYicGgIKzZ8/SE088Qf/5P/9nVyHefffdRlVlfsIrO8a0LC68HFnE+bEsNZ7L9JMgueXUR540IPvpS1bXv4Hrpj+2Oozgln1FC73Au17t1xmX8FkvaDvZvn21tLTQ008/rXxvAERj2rRpdOedd0at/7i2CC7KPn36iJ2uaqUAyLAg/NM//ZOrCFWFmMkJr+wwusRw32TrgMFoxS+Sp/Vcpp8EQfazIamo/1Te9Mf1C5NEMmTfc/k+6wVtJ9u3L87zzz8vunCq3h8AfvCvQj/60Y+i1n/cW8TWrVuF8KP/PvCCW/RZDjp06OAqQJNsSnhlh9GFp5tNehTDPJfplCBJkPj1WPNA9jM1Qdd/6m/64xwu/fJlDhe/SrVR9pl41wvaTC7IfklJiWihVb0/ALw4ePCg+B521v5f/uVfGpUVSZu2iMbGRnHCLhcni53qRYBwsm7dOtF1x6tFn8m2hFd29GlFi7z0nGH5dg5TL9MuQeYvDALVCbrW8jzkybnOLACyHx3c9Ae0lVyQfb6HETvV/v37le8RABV8Sfz/+l//q6v277rrLqOyIkloi+CjUb4kJ/+MUFxcDEIMy8BvfvMb6tixo7KPvsl//+//3aie7AlkJyicgp+bQPZjBzf9AfGSC7LPOXDggJC377//Xvk+AZCZO3cu3Xvvva66Z5599lmjqiJJyhbBZ5P/r//1v+jHP/4xCCl33HEH3X777crCM1H9tJQNgewEg+oXg1wEsg9AcOSK7HPmz58vrnqIHhPAD74CDzeu3nbbba6696r9pG4Rv/rVr5QrBoBrI1sD2UkW3JIv10Xut+ozkH0AgiOXZJ/D2xvfm4YvW616vyC8cLfeN954Q/iUV+Oql2sFskVwfyHViwDhQ9V3LNsC2QGJANkHIDhyTfY5fOXDN998U1wMhbvJbt++HYQYbsl/99136dFHH6W/+7u/c9W6iV/viezeIhAkBYHsgETIdhnBTX9AJhPrTYWyMdyPf9asWfTQQw+BEMP1/fd///ee3XZM/ALZR5Ao4cvN8k9nqi8aAKKxcuXKrJYRvvoadytQvTcA0g2fqPi///f/ztrtK9bwXeed7xEAhmsjWiD7CBIl3LrCP6eqvmgAiEZpaSndc889rh10NoWvuoaTBkEmwt0buNUzm7evWMPdOJzvE4QbrolYAtlHkCjhq+Hw7cxxSTTQFsaPH0//8A//4NpJZ1MKCwupqqpK+f4ASBd8AOp1VZIwpHPnziCEtCWQfQSJIXyyFK6OANrCY489prz3RDaFTxjkX7f4ahCq9whAOuBzqVQ3cMyFC0MgSDID2UeQGMJ3tuUbnqi+cADwglvDf/azn7lkJBtvLldXVyeuAa56nwCkGm586dSpk2vbYtra+okguRrIPoLEmOnTp4uTwVRfPAA4aW5uFv0pVV0M/uVf/sWoquzKiBEjxDkIqvcLQKo4ePAgPfHEE553a0cQxB5sFQgSY1pbW6lv3760f/9+5RcQACZ8fgdfrvJHP/pRTskIbwNjxowRV6dClx6QDrjBhQ+i/8t/+S/KbSsbfzVDkKAD2UeQOMJX5mHhRws/8OKrr76i3/72t/STn/xEKSN+Nz7JlvDlaPlynJMmTRI3fVF9DgAkC/6VjH9R4vNG7r33Xt/rjSMI4g62DASJM9y6yV16uA8/i53qywmEDxaSadOmUdeuXemv//qvlSLC5Er4KlXl5eX0zDPPKG8EA0CyeOSRR8Tla71a800QBFEHWweCtDF80u7gwYPp8ccfF102QHjhFkcWEtXNfWSyta9+LFG9XwBSBYIg3sEWgiAJhi9LeN9994n+2SCcRGtxZO6++26jYnI3/B5V7x2AoAjDdoUgiQayjyBJjOrLCICw5dlnn3XdCAaAZIIgSOyB7CNIkvPkk08qhQ+ECz4Rl2sBQRAEQdIZyD6CIAiCIAiC5Ggg+wiCIAiCIAiSo4HsIwiCIAiCIEiOBrKPIAiCIAiCIDkayD6CIAiCIAiC5GSI/n9XDuNNJPdHMQAAAABJRU5ErkJggg==;movable=0;resizable=0;rotatable=0;deletable=0;editable=0;locked=1;connectable=0;" vertex="1" parent="WIyWlLk6GJQsqaUBKTNV-1">
          <mxGeometry x="-847" y="-1139" width="763" height="529" as="geometry" />
        </mxCell>
        <mxCell id="911ZeBKbHTQz3sIzibPU-8" value="1" style="endArrow=none;html=1;endSize=12;startArrow=diamondThin;startSize=14;startFill=0;edgeStyle=orthogonalEdgeStyle;align=left;verticalAlign=bottom;rounded=0;endFill=0;fontColor=none;noLabel=1;labelBackgroundColor=none;" parent="WIyWlLk6GJQsqaUBKTNV-1" edge="1">
          <mxGeometry x="-0.7586" y="-2" relative="1" as="geometry">
            <mxPoint x="-237" y="-1006" as="sourcePoint" />
            <mxPoint x="-283" y="-890" as="targetPoint" />
            <Array as="points">
              <mxPoint x="-263" y="-1006" />
              <mxPoint x="-263" y="-890" />
            </Array>
            <mxPoint as="offset" />
          </mxGeometry>
        </mxCell>
        <mxCell id="911ZeBKbHTQz3sIzibPU-9" value="1" style="endArrow=none;html=1;endSize=12;startArrow=diamondThin;startSize=14;startFill=0;edgeStyle=orthogonalEdgeStyle;align=left;verticalAlign=bottom;rounded=0;endFill=0;fontColor=none;noLabel=1;labelBackgroundColor=none;" parent="WIyWlLk6GJQsqaUBKTNV-1" edge="1">
          <mxGeometry x="-0.7588" y="-6" relative="1" as="geometry">
            <mxPoint x="-236" y="-760" as="sourcePoint" />
            <mxPoint x="-284" y="-820" as="targetPoint" />
            <Array as="points">
              <mxPoint x="-258" y="-760" />
              <mxPoint x="-258" y="-820" />
            </Array>
            <mxPoint as="offset" />
          </mxGeometry>
        </mxCell>
        <mxCell id="911ZeBKbHTQz3sIzibPU-10" value="" style="endArrow=open;endFill=1;endSize=12;html=1;rounded=0;" parent="WIyWlLk6GJQsqaUBKTNV-1" edge="1">
          <mxGeometry width="160" relative="1" as="geometry">
            <mxPoint x="-499" y="-928" as="sourcePoint" />
            <mxPoint x="-451" y="-928" as="targetPoint" />
          </mxGeometry>
        </mxCell>
        <mxCell id="Karo0WKER9Bs8j3VZDQL-1" value="" style="endArrow=open;endFill=1;endSize=12;html=1;rounded=0;" edge="1" parent="WIyWlLk6GJQsqaUBKTNV-1">
          <mxGeometry width="160" relative="1" as="geometry">
            <mxPoint x="-500" y="-730" as="sourcePoint" />
            <mxPoint x="-450" y="-730" as="targetPoint" />
          </mxGeometry>
        </mxCell>
        <mxCell id="Karo0WKER9Bs8j3VZDQL-2" value="" style="endArrow=open;endFill=1;endSize=12;html=1;rounded=0;" edge="1" parent="WIyWlLk6GJQsqaUBKTNV-1">
          <mxGeometry width="160" relative="1" as="geometry">
            <mxPoint x="-690" y="-720" as="sourcePoint" />
            <mxPoint x="-644" y="-720" as="targetPoint" />
          </mxGeometry>
        </mxCell>
        <mxCell id="Karo0WKER9Bs8j3VZDQL-3" value="" style="endArrow=open;endFill=1;endSize=12;html=1;rounded=0;" edge="1" parent="WIyWlLk6GJQsqaUBKTNV-1">
          <mxGeometry width="160" relative="1" as="geometry">
            <mxPoint x="-772" y="-861" as="sourcePoint" />
            <mxPoint x="-772" y="-770" as="targetPoint" />
          </mxGeometry>
        </mxCell>
      </root>
    </mxGraphModel>
  </diagram>
</mxfile>
